<svg aria-hidden="true" style="position: absolute; width: 0; height: 0; overflow: hidden;" version="1.1" xmlns="http://www.w3.org/2000/svg" xmlns:xlink="http://www.w3.org/1999/xlink">
<defs>
<symbol id="icon-error" viewBox="0 0 24 24">
<title>error</title>
<path d="M12.984 12.984v-6h-1.969v6h1.969zM12.984 17.016v-2.016h-1.969v2.016h1.969zM12 2.016q4.125 0 7.055 2.93t2.93 7.055-2.93 7.055-7.055 2.93-7.055-2.93-2.93-7.055 2.93-7.055 7.055-2.93z"></path>
</symbol>
<symbol id="icon-error_outline" viewBox="0 0 24 24">
<title>error_outline</title>
<path d="M12 20.016q3.281 0 5.648-2.367t2.367-5.648-2.367-5.648-5.648-2.367-5.648 2.367-2.367 5.648 2.367 5.648 5.648 2.367zM12 2.016q4.125 0 7.055 2.93t2.93 7.055-2.93 7.055-7.055 2.93-7.055-2.93-2.93-7.055 2.93-7.055 7.055-2.93zM11.016 6.984h1.969v6h-1.969v-6zM11.016 15h1.969v2.016h-1.969v-2.016z"></path>
</symbol>
<symbol id="icon-warning" viewBox="0 0 24 24">
<title>warning</title>
<path d="M12.984 14.016v-4.031h-1.969v4.031h1.969zM12.984 18v-2.016h-1.969v2.016h1.969zM0.984 21l11.016-18.984 11.016 18.984h-22.031z"></path>
</symbol>
<symbol id="icon-av_timer" viewBox="0 0 24 24">
<title>av_timer</title>
<path d="M6 12q0-0.422 0.281-0.703t0.703-0.281 0.727 0.281 0.305 0.703-0.305 0.703-0.727 0.281-0.703-0.281-0.281-0.703zM18 12q0 0.422-0.281 0.703t-0.703 0.281-0.727-0.281-0.305-0.703 0.305-0.703 0.727-0.281 0.703 0.281 0.281 0.703zM11.016 3h0.984q3.75 0 6.375 2.625t2.625 6.375-2.625 6.375-6.375 2.625-6.375-2.625-2.625-6.375q0-4.5 3.609-7.172v-0.047l6.797 6.797-1.406 1.406-5.438-5.391q-1.547 1.922-1.547 4.406 0 2.906 2.039 4.945t4.945 2.039 4.945-2.039 2.039-4.945q0-2.625-1.734-4.594t-4.266-2.344v1.922h-1.969v-3.984zM11.016 17.016q0-0.422 0.281-0.727t0.703-0.305 0.703 0.305 0.281 0.727-0.281 0.703-0.703 0.281-0.703-0.281-0.281-0.703z"></path>
</symbol>
<symbol id="icon-library_books" viewBox="0 0 24 24">
<title>library_books</title>
<path d="M18.984 6.984v-1.969h-9.984v1.969h9.984zM15 15v-2.016h-6v2.016h6zM18.984 11.016v-2.016h-9.984v2.016h9.984zM20.016 2.016q0.797 0 1.383 0.586t0.586 1.383v12q0 0.797-0.586 1.406t-1.383 0.609h-12q-0.797 0-1.406-0.609t-0.609-1.406v-12q0-0.797 0.609-1.383t1.406-0.586h12zM3.984 6v14.016h14.016v1.969h-14.016q-0.797 0-1.383-0.586t-0.586-1.383v-14.016h1.969z"></path>
</symbol>
<symbol id="icon-not_interested" viewBox="0 0 24 24">
<title>not_interested</title>
<path d="M18.328 16.922q1.688-2.109 1.688-4.922 0-3.281-2.367-5.648t-5.648-2.367q-1.125 0-2.578 0.492t-2.344 1.195zM12 20.016q1.125 0 2.578-0.492t2.344-1.195l-11.25-11.25q-1.688 2.109-1.688 4.922 0 3.281 2.367 5.648t5.648 2.367zM12 2.016q4.125 0 7.055 2.93t2.93 7.055-2.93 7.055-7.055 2.93-7.055-2.93-2.93-7.055 2.93-7.055 7.055-2.93z"></path>
</symbol>
<symbol id="icon-pause" viewBox="0 0 24 24">
<title>pause</title>
<path d="M14.016 5.016h3.984v13.969h-3.984v-13.969zM6 18.984v-13.969h3.984v13.969h-3.984z"></path>
</symbol>
<symbol id="icon-pause_circle_filled" viewBox="0 0 24 24">
<title>pause_circle_filled</title>
<path d="M15 15.984v-7.969h-2.016v7.969h2.016zM11.016 15.984v-7.969h-2.016v7.969h2.016zM12 2.016q4.125 0 7.055 2.93t2.93 7.055-2.93 7.055-7.055 2.93-7.055-2.93-2.93-7.055 2.93-7.055 7.055-2.93z"></path>
</symbol>
<symbol id="icon-pause_circle_outline" viewBox="0 0 24 24">
<title>pause_circle_outline</title>
<path d="M12.984 15.984v-7.969h2.016v7.969h-2.016zM12 20.016q3.281 0 5.648-2.367t2.367-5.648-2.367-5.648-5.648-2.367-5.648 2.367-2.367 5.648 2.367 5.648 5.648 2.367zM12 2.016q4.125 0 7.055 2.93t2.93 7.055-2.93 7.055-7.055 2.93-7.055-2.93-2.93-7.055 2.93-7.055 7.055-2.93zM9 15.984v-7.969h2.016v7.969h-2.016z"></path>
</symbol>
<symbol id="icon-play_arrow" viewBox="0 0 24 24">
<title>play_arrow</title>
<path d="M8.016 5.016l10.969 6.984-10.969 6.984v-13.969z"></path>
</symbol>
<symbol id="icon-play_circle_filled" viewBox="0 0 24 24">
<title>play_circle_filled</title>
<path d="M9.984 16.5l6-4.5-6-4.5v9zM12 2.016q4.125 0 7.055 2.93t2.93 7.055-2.93 7.055-7.055 2.93-7.055-2.93-2.93-7.055 2.93-7.055 7.055-2.93z"></path>
</symbol>
<symbol id="icon-play_circle_outline" viewBox="0 0 24 24">
<title>play_circle_outline</title>
<path d="M12 20.016q3.281 0 5.648-2.367t2.367-5.648-2.367-5.648-5.648-2.367-5.648 2.367-2.367 5.648 2.367 5.648 5.648 2.367zM12 2.016q4.125 0 7.055 2.93t2.93 7.055-2.93 7.055-7.055 2.93-7.055-2.93-2.93-7.055 2.93-7.055 7.055-2.93zM9.984 16.5v-9l6 4.5z"></path>
</symbol>
<symbol id="icon-location_on" viewBox="0 0 24 24">
<title>location_on</title>
<path d="M12 11.484q1.031 0 1.758-0.727t0.727-1.758-0.727-1.758-1.758-0.727-1.758 0.727-0.727 1.758 0.727 1.758 1.758 0.727zM12 2.016q2.906 0 4.945 2.039t2.039 4.945q0 1.453-0.727 3.328t-1.758 3.516-2.039 3.070-1.711 2.273l-0.75 0.797q-0.281-0.328-0.75-0.867t-1.688-2.156-2.133-3.141-1.664-3.445-0.75-3.375q0-2.906 2.039-4.945t4.945-2.039z"></path>
</symbol>
<symbol id="icon-add" viewBox="0 0 24 24">
<title>add</title>
<path d="M18.984 12.984h-6v6h-1.969v-6h-6v-1.969h6v-6h1.969v6h6v1.969z"></path>
</symbol>
<symbol id="icon-add_box" viewBox="0 0 24 24">
<title>add_box</title>
<path d="M17.016 12.984v-1.969h-4.031v-4.031h-1.969v4.031h-4.031v1.969h4.031v4.031h1.969v-4.031h4.031zM18.984 3q0.797 0 1.406 0.609t0.609 1.406v13.969q0 0.797-0.609 1.406t-1.406 0.609h-13.969q-0.844 0-1.43-0.586t-0.586-1.43v-13.969q0-0.844 0.586-1.43t1.43-0.586h13.969z"></path>
</symbol>
<symbol id="icon-add_circle" viewBox="0 0 24 24">
<title>add_circle</title>
<path d="M17.016 12.984v-1.969h-4.031v-4.031h-1.969v4.031h-4.031v1.969h4.031v4.031h1.969v-4.031h4.031zM12 2.016q4.125 0 7.055 2.93t2.93 7.055-2.93 7.055-7.055 2.93-7.055-2.93-2.93-7.055 2.93-7.055 7.055-2.93z"></path>
</symbol>
<symbol id="icon-add_circle_outline" viewBox="0 0 24 24">
<title>add_circle_outline</title>
<path d="M12 20.016q3.281 0 5.648-2.367t2.367-5.648-2.367-5.648-5.648-2.367-5.648 2.367-2.367 5.648 2.367 5.648 5.648 2.367zM12 2.016q4.125 0 7.055 2.93t2.93 7.055-2.93 7.055-7.055 2.93-7.055-2.93-2.93-7.055 2.93-7.055 7.055-2.93zM12.984 6.984v4.031h4.031v1.969h-4.031v4.031h-1.969v-4.031h-4.031v-1.969h4.031v-4.031h1.969z"></path>
</symbol>
<symbol id="icon-backspace" viewBox="0 0 24 24">
<title>backspace</title>
<path d="M18.984 15.609l-3.563-3.609 3.563-3.609-1.406-1.406-3.563 3.609-3.609-3.609-1.406 1.406 3.609 3.609-3.609 3.609 1.406 1.406 3.609-3.609 3.563 3.609zM21.984 3q0.797 0 1.406 0.609t0.609 1.406v13.969q0 0.797-0.609 1.406t-1.406 0.609h-15q-0.938 0-1.594-0.891l-5.391-8.109 5.391-8.109q0.656-0.891 1.594-0.891h15z"></path>
</symbol>
<symbol id="icon-block" viewBox="0 0 24 24">
<title>block</title>
<path d="M12 20.016q3.281 0 5.648-2.367t2.367-5.648q0-1.125-0.492-2.578t-1.195-2.344l-11.25 11.25q2.109 1.688 4.922 1.688zM3.984 12q0 1.125 0.492 2.578t1.195 2.344l11.25-11.25q-2.109-1.688-4.922-1.688-3.281 0-5.648 2.367t-2.367 5.648zM12 2.016q4.125 0 7.055 2.93t2.93 7.055-2.93 7.055-7.055 2.93-7.055-2.93-2.93-7.055 2.93-7.055 7.055-2.93z"></path>
</symbol>
<symbol id="icon-clear" viewBox="0 0 24 24">
<title>clear</title>
<path d="M18.984 6.422l-5.578 5.578 5.578 5.578-1.406 1.406-5.578-5.578-5.578 5.578-1.406-1.406 5.578-5.578-5.578-5.578 1.406-1.406 5.578 5.578 5.578-5.578z"></path>
</symbol>
<symbol id="icon-link" viewBox="0 0 24 24">
<title>link</title>
<path d="M17.016 6.984q2.063 0 3.516 1.477t1.453 3.539-1.453 3.539-3.516 1.477h-4.031v-1.922h4.031q1.266 0 2.18-0.914t0.914-2.18-0.914-2.18-2.18-0.914h-4.031v-1.922h4.031zM8.016 12.984v-1.969h7.969v1.969h-7.969zM3.891 12q0 1.266 0.914 2.18t2.18 0.914h4.031v1.922h-4.031q-2.063 0-3.516-1.477t-1.453-3.539 1.453-3.539 3.516-1.477h4.031v1.922h-4.031q-1.266 0-2.18 0.914t-0.914 2.18z"></path>
</symbol>
<symbol id="icon-remove_circle" viewBox="0 0 24 24">
<title>remove_circle</title>
<path d="M17.016 12.984v-1.969h-10.031v1.969h10.031zM12 2.016q4.125 0 7.055 2.93t2.93 7.055-2.93 7.055-7.055 2.93-7.055-2.93-2.93-7.055 2.93-7.055 7.055-2.93z"></path>
</symbol>
<symbol id="icon-remove_circle_outline" viewBox="0 0 24 24">
<title>remove_circle_outline</title>
<path d="M12 20.016q3.281 0 5.648-2.367t2.367-5.648-2.367-5.648-5.648-2.367-5.648 2.367-2.367 5.648 2.367 5.648 5.648 2.367zM12 2.016q4.125 0 7.055 2.93t2.93 7.055-2.93 7.055-7.055 2.93-7.055-2.93-2.93-7.055 2.93-7.055 7.055-2.93zM6.984 11.016h10.031v1.969h-10.031v-1.969z"></path>
</symbol>
<symbol id="icon-send" viewBox="0 0 24 24">
<title>send</title>
<path d="M2.016 21v-6.984l15-2.016-15-2.016v-6.984l21 9z"></path>
</symbol>
<symbol id="icon-where_to_vote" viewBox="0 0 24 24">
<title>where_to_vote</title>
<path d="M10.453 14.016l6.563-6.609-1.406-1.406-5.156 5.203-2.063-2.109-1.406 1.406zM12 2.016q2.906 0 4.945 2.039t2.039 4.945q0 1.453-0.727 3.328t-1.758 3.516-2.039 3.070-1.711 2.273l-0.75 0.797q-0.281-0.328-0.75-0.867t-1.688-2.156-2.133-3.141-1.664-3.445-0.75-3.375q0-2.906 2.039-4.945t4.945-2.039z"></path>
</symbol>
<symbol id="icon-access_alarm" viewBox="0 0 24 24">
<title>access_alarm</title>
<path d="M12 20.016q2.906 0 4.945-2.063t2.039-4.969-2.039-4.945-4.945-2.039-4.945 2.039-2.039 4.945 2.039 4.969 4.945 2.063zM12 3.984q3.75 0 6.375 2.648t2.625 6.352-2.625 6.352-6.375 2.648-6.375-2.648-2.625-6.352 2.625-6.352 6.375-2.648zM12.516 8.016v5.25l3.984 2.344-0.75 1.219-4.734-2.813v-6h1.5zM7.875 3.375l-4.594 3.844-1.266-1.5 4.594-3.844zM21.984 5.719l-1.266 1.547-4.594-3.891 1.266-1.5z"></path>
</symbol>
<symbol id="icon-gps_fixed" viewBox="0 0 24 24">
<title>gps_fixed</title>
<path d="M12 18.984q2.906 0 4.945-2.039t2.039-4.945-2.039-4.945-4.945-2.039-4.945 2.039-2.039 4.945 2.039 4.945 4.945 2.039zM20.953 11.016h2.063v1.969h-2.063q-0.328 2.953-2.672 5.297t-5.297 2.672v2.063h-1.969v-2.063q-2.953-0.328-5.297-2.672t-2.672-5.297h-2.063v-1.969h2.063q0.328-2.953 2.672-5.297t5.297-2.672v-2.063h1.969v2.063q2.953 0.328 5.297 2.672t2.672 5.297zM12 8.016q1.641 0 2.813 1.172t1.172 2.813-1.172 2.813-2.813 1.172-2.813-1.172-1.172-2.813 1.172-2.813 2.813-1.172z"></path>
</symbol>
<symbol id="icon-gps_not_fixed" viewBox="0 0 24 24">
<title>gps_not_fixed</title>
<path d="M12 18.984q2.906 0 4.945-2.039t2.039-4.945-2.039-4.945-4.945-2.039-4.945 2.039-2.039 4.945 2.039 4.945 4.945 2.039zM20.953 11.016h2.063v1.969h-2.063q-0.328 2.953-2.672 5.297t-5.297 2.672v2.063h-1.969v-2.063q-2.953-0.328-5.297-2.672t-2.672-5.297h-2.063v-1.969h2.063q0.328-2.953 2.672-5.297t5.297-2.672v-2.063h1.969v2.063q2.953 0.328 5.297 2.672t2.672 5.297z"></path>
</symbol>
<symbol id="icon-gps_off" viewBox="0 0 24 24">
<title>gps_off</title>
<path d="M16.266 17.531l-9.797-9.797q-0.609 0.797-1.031 2.039t-0.422 2.227q0 2.906 2.039 4.945t4.945 2.039q0.984 0 2.227-0.422t2.039-1.031zM3 4.266l1.266-1.266 16.734 16.734-1.266 1.266-2.063-2.063q-2.109 1.734-4.688 2.016v2.063h-1.969v-2.063q-2.953-0.328-5.297-2.672t-2.672-5.297h-2.063v-1.969h2.063q0.094-1.078 0.703-2.461t1.313-2.227zM20.953 11.016h2.063v1.969h-2.063q-0.234 1.828-0.984 3.188l-1.5-1.5q0.516-1.266 0.516-2.672 0-2.906-2.039-4.945t-4.945-2.039q-1.406 0-2.672 0.516l-1.5-1.5q1.453-0.75 3.188-0.984v-2.063h1.969v2.063q2.953 0.328 5.297 2.672t2.672 5.297z"></path>
</symbol>
<symbol id="icon-attach_file" viewBox="0 0 24 24">
<title>attach_file</title>
<path d="M16.5 6h1.5v11.484q0 2.297-1.594 3.914t-3.891 1.617-3.914-1.617-1.617-3.914v-12.469q0-1.641 1.195-2.836t2.836-1.195 2.813 1.195 1.172 2.836v10.5q0 1.031-0.727 1.758t-1.758 0.727-1.781-0.727-0.75-1.758v-9.516h1.5v9.516q0 0.422 0.305 0.703t0.727 0.281 0.703-0.281 0.281-0.703v-10.5q0-1.031-0.727-1.781t-1.758-0.75-1.781 0.75-0.75 1.781v12.469q0 1.641 1.195 2.836t2.836 1.195 2.813-1.195 1.172-2.836v-11.484z"></path>
</symbol>
<symbol id="icon-cloud_done" viewBox="0 0 24 24">
<title>cloud_done</title>
<path d="M9.984 17.016l6.609-6.609-1.406-1.406-5.203 5.156-2.063-2.063-1.406 1.406zM19.359 10.031q1.922 0.141 3.281 1.57t1.359 3.398q0 2.063-1.477 3.539t-3.539 1.477h-12.984q-2.484 0-4.242-1.758t-1.758-4.242q0-2.203 1.57-3.961t3.773-1.992q0.984-1.828 2.766-2.953t3.891-1.125q2.531 0 4.711 1.781t2.648 4.266z"></path>
</symbol>
<symbol id="icon-cloud_off" viewBox="0 0 24 24">
<title>cloud_off</title>
<path d="M7.734 9.984h-1.734q-1.641 0-2.813 1.195t-1.172 2.836 1.172 2.813 2.813 1.172h9.75zM3 5.25l1.266-1.266 16.734 16.734-1.266 1.266-2.016-1.969h-11.719q-2.484 0-4.242-1.758t-1.758-4.242q0-2.438 1.688-4.172t4.078-1.828zM19.359 10.031q1.922 0.141 3.281 1.57t1.359 3.398q0 2.578-2.109 4.078l-1.453-1.453q1.547-0.844 1.547-2.625 0-1.219-0.891-2.109t-2.109-0.891h-1.5v-0.516q0-2.297-1.594-3.891t-3.891-1.594q-1.313 0-2.531 0.609l-1.5-1.453q1.828-1.172 4.031-1.172 2.531 0 4.711 1.781t2.648 4.266z"></path>
</symbol>
<symbol id="icon-cloud_queue" viewBox="0 0 24 24">
<title>cloud_queue</title>
<path d="M18.984 18q1.219 0 2.109-0.891t0.891-2.109-0.891-2.109-2.109-0.891h-1.5v-0.516q0-2.297-1.594-3.891t-3.891-1.594q-1.875 0-3.328 1.125t-1.969 2.859h-0.703q-1.641 0-2.813 1.195t-1.172 2.836 1.172 2.813 2.813 1.172h12.984zM19.359 10.031q1.922 0.141 3.281 1.57t1.359 3.398q0 2.063-1.477 3.539t-3.539 1.477h-12.984q-2.484 0-4.242-1.758t-1.758-4.242q0-2.203 1.57-3.961t3.773-1.992q0.984-1.828 2.766-2.953t3.891-1.125q2.531 0 4.711 1.781t2.648 4.266z"></path>
</symbol>
<symbol id="icon-keyboard_arrow_down" viewBox="0 0 24 24">
<title>keyboard_arrow_down</title>
<path d="M7.406 8.578l4.594 4.594 4.594-4.594 1.406 1.406-6 6-6-6z"></path>
</symbol>
<symbol id="icon-keyboard_arrow_left" viewBox="0 0 24 24">
<title>keyboard_arrow_left</title>
<path d="M15.422 16.594l-1.406 1.406-6-6 6-6 1.406 1.406-4.594 4.594z"></path>
</symbol>
<symbol id="icon-keyboard_arrow_right" viewBox="0 0 24 24">
<title>keyboard_arrow_right</title>
<path d="M8.578 16.594l4.594-4.594-4.594-4.594 1.406-1.406 6 6-6 6z"></path>
</symbol>
<symbol id="icon-keyboard_arrow_up" viewBox="0 0 24 24">
<title>keyboard_arrow_up</title>
<path d="M7.406 15.422l-1.406-1.406 6-6 6 6-1.406 1.406-4.594-4.594z"></path>
</symbol>
<symbol id="icon-camera_alt" viewBox="0 0 24 24">
<title>camera_alt</title>
<path d="M12 17.016q2.063 0 3.539-1.477t1.477-3.539-1.477-3.539-3.539-1.477-3.539 1.477-1.477 3.539 1.477 3.539 3.539 1.477zM9 2.016h6l1.828 1.969h3.188q0.797 0 1.383 0.609t0.586 1.406v12q0 0.797-0.586 1.406t-1.383 0.609h-16.031q-0.797 0-1.383-0.609t-0.586-1.406v-12q0-0.797 0.586-1.406t1.383-0.609h3.188zM8.813 12q0-1.313 0.938-2.25t2.25-0.938 2.25 0.938 0.938 2.25-0.938 2.25-2.25 0.938-2.25-0.938-0.938-2.25z"></path>
</symbol>
<symbol id="icon-directions_bus" viewBox="0 0 24 24">
<title>directions_bus</title>
<path d="M18 11.016v-5.016h-12v5.016h12zM16.5 17.016q0.656 0 1.078-0.445t0.422-1.055-0.422-1.055-1.078-0.445-1.078 0.445-0.422 1.055 0.422 1.055 1.078 0.445zM7.5 17.016q0.656 0 1.078-0.445t0.422-1.055-0.422-1.055-1.078-0.445-1.078 0.445-0.422 1.055 0.422 1.055 1.078 0.445zM3.984 15.984v-9.984q0-2.391 2.063-3.188t5.953-0.797 5.953 0.797 2.063 3.188v9.984q0 1.313-1.031 2.25v1.781q0 0.422-0.281 0.703t-0.703 0.281h-0.984q-0.422 0-0.727-0.281t-0.305-0.703v-1.031h-7.969v1.031q0 0.422-0.305 0.703t-0.727 0.281h-0.984q-0.422 0-0.703-0.281t-0.281-0.703v-1.781q-1.031-0.938-1.031-2.25z"></path>
</symbol>
<symbol id="icon-directions_car" viewBox="0 0 24 24">
<title>directions_car</title>
<path d="M5.016 11.016h13.969l-1.5-4.5h-10.969zM17.484 15.984q0.609 0 1.055-0.445t0.445-1.055-0.445-1.055-1.055-0.445-1.055 0.445-0.445 1.055 0.445 1.055 1.055 0.445zM6.516 15.984q0.609 0 1.055-0.445t0.445-1.055-0.445-1.055-1.055-0.445-1.055 0.445-0.445 1.055 0.445 1.055 1.055 0.445zM18.938 6l2.063 6v8.016q0 0.422-0.281 0.703t-0.703 0.281h-1.031q-0.422 0-0.703-0.281t-0.281-0.703v-1.031h-12v1.031q0 0.422-0.281 0.703t-0.703 0.281h-1.031q-0.422 0-0.703-0.281t-0.281-0.703v-8.016l2.063-6q0.281-0.984 1.453-0.984h10.969q1.172 0 1.453 0.984z"></path>
</symbol>
<symbol id="icon-directions_train" viewBox="0 0 24 24">
<title>directions_train</title>
<path d="M18 9.984v-4.969h-12v4.969h12zM12 17.016q0.797 0 1.406-0.609t0.609-1.406-0.609-1.406-1.406-0.609-1.406 0.609-0.609 1.406 0.609 1.406 1.406 0.609zM3.984 15.516v-10.5q0-2.391 2.063-3.211t5.953-0.82 5.953 0.82 2.063 3.211v10.5q0 1.453-1.031 2.461t-2.484 1.008l1.5 1.5v0.516h-12v-0.516l1.5-1.5q-1.453 0-2.484-1.008t-1.031-2.461z"></path>
</symbol>
<symbol id="icon-directions_walk" viewBox="0 0 24 24">
<title>directions_walk</title>
<path d="M9.797 8.906l-2.813 14.109h2.109l1.828-8.016 2.063 2.016v6h2.016v-7.5l-2.109-2.016 0.609-3q2.156 2.484 5.484 2.484v-1.969q-2.906 0-4.266-2.438l-1.031-1.594q-0.703-0.984-1.688-0.984-0.141 0-0.398 0.047t-0.398 0.047l-5.203 2.203v4.688h2.016v-3.375l1.781-0.703zM13.5 5.484q-0.797 0-1.406-0.586t-0.609-1.383 0.609-1.406 1.406-0.609 1.406 0.609 0.609 1.406-0.609 1.383-1.406 0.586z"></path>
</symbol>
<symbol id="icon-train" viewBox="0 0 24 24">
<title>train</title>
<path d="M16.5 17.016q0.656 0 1.078-0.445t0.422-1.055-0.422-1.055-1.078-0.445-1.078 0.445-0.422 1.055 0.422 1.055 1.078 0.445zM12.984 9.984h5.016v-3.984h-5.016v3.984zM11.016 9.984v-3.984h-5.016v3.984h5.016zM7.5 17.016q0.656 0 1.078-0.445t0.422-1.055-0.422-1.055-1.078-0.445-1.078 0.445-0.422 1.055 0.422 1.055 1.078 0.445zM12 2.016q3.891 0 5.953 0.797t2.063 3.188v9.516q0 1.453-1.031 2.461t-2.484 1.008l1.5 1.5v0.516h-2.016l-1.969-2.016h-3.797l-1.969 2.016h-2.25v-0.516l1.5-1.5q-1.453 0-2.484-1.008t-1.031-2.461v-9.516q0-1.266 0.656-2.109t1.898-1.219 2.484-0.516 2.977-0.141z"></path>
</symbol>
<symbol id="icon-arrow_drop_down" viewBox="0 0 24 24">
<title>arrow_drop_down</title>
<path d="M6.984 9.984h10.031l-5.016 5.016z"></path>
</symbol>
<symbol id="icon-arrow_drop_up" viewBox="0 0 24 24">
<title>arrow_drop_up</title>
<path d="M6.984 14.016l5.016-5.016 5.016 5.016h-10.031z"></path>
</symbol>
<symbol id="icon-check" viewBox="0 0 24 24">
<title>check</title>
<path d="M9 16.172l10.594-10.594 1.406 1.406-12 12-5.578-5.578 1.406-1.406z"></path>
</symbol>
<symbol id="icon-expand_less" viewBox="0 0 24 24">
<title>expand_less</title>
<path d="M12 8.016l6 6-1.406 1.406-4.594-4.594-4.594 4.594-1.406-1.406z"></path>
</symbol>
<symbol id="icon-expand_more" viewBox="0 0 24 24">
<title>expand_more</title>
<path d="M16.594 8.578l1.406 1.406-6 6-6-6 1.406-1.406 4.594 4.594z"></path>
</symbol>
<symbol id="icon-keyboard_control" viewBox="0 0 24 24">
<title>keyboard_control</title>
<path d="M12 9.984q0.797 0 1.406 0.609t0.609 1.406-0.609 1.406-1.406 0.609-1.406-0.609-0.609-1.406 0.609-1.406 1.406-0.609zM18 9.984q0.797 0 1.406 0.609t0.609 1.406-0.609 1.406-1.406 0.609-1.406-0.609-0.609-1.406 0.609-1.406 1.406-0.609zM6 9.984q0.797 0 1.406 0.609t0.609 1.406-0.609 1.406-1.406 0.609-1.406-0.609-0.609-1.406 0.609-1.406 1.406-0.609z"></path>
</symbol>
<symbol id="icon-more_vert" viewBox="0 0 24 24">
<title>more_vert</title>
<path d="M12 15.984q0.797 0 1.406 0.609t0.609 1.406-0.609 1.406-1.406 0.609-1.406-0.609-0.609-1.406 0.609-1.406 1.406-0.609zM12 9.984q0.797 0 1.406 0.609t0.609 1.406-0.609 1.406-1.406 0.609-1.406-0.609-0.609-1.406 0.609-1.406 1.406-0.609zM12 8.016q-0.797 0-1.406-0.609t-0.609-1.406 0.609-1.406 1.406-0.609 1.406 0.609 0.609 1.406-0.609 1.406-1.406 0.609z"></path>
</symbol>
<symbol id="icon-unfold_more" viewBox="0 0 24 24">
<title>unfold_more</title>
<path d="M12 18.188l3.188-3.188 1.406 1.406-4.594 4.594-4.594-4.594 1.406-1.406zM12 5.813l-3.188 3.188-1.406-1.406 4.594-4.594 4.594 4.594-1.406 1.406z"></path>
</symbol>
<symbol id="icon-arrow_left" viewBox="0 0 24 24">
<title>arrow_left</title>
<path d="M14.016 6.984v10.031l-5.016-5.016z"></path>
</symbol>
<symbol id="icon-arrow_right" viewBox="0 0 24 24">
<title>arrow_right</title>
<path d="M9.984 17.016v-10.031l5.016 5.016z"></path>
</symbol>
<symbol id="icon-highlight_remove" viewBox="0 0 24 24">
<title>highlight_remove</title>
<path d="M12 20.016q3.281 0 5.648-2.367t2.367-5.648-2.367-5.648-5.648-2.367-5.648 2.367-2.367 5.648 2.367 5.648 5.648 2.367zM12 2.016q4.125 0 7.055 2.93t2.93 7.055-2.93 7.055-7.055 2.93-7.055-2.93-2.93-7.055 2.93-7.055 7.055-2.93zM14.578 8.016l1.406 1.406-2.578 2.578 2.578 2.578-1.406 1.406-2.578-2.578-2.578 2.578-1.406-1.406 2.578-2.578-2.578-2.578 1.406-1.406 2.578 2.578z"></path>
</symbol>
<symbol id="icon-info_outline" viewBox="0 0 24 24">
<title>info_outline</title>
<path d="M11.016 9v-2.016h1.969v2.016h-1.969zM12 20.016q3.281 0 5.648-2.367t2.367-5.648-2.367-5.648-5.648-2.367-5.648 2.367-2.367 5.648 2.367 5.648 5.648 2.367zM12 2.016q4.125 0 7.055 2.93t2.93 7.055-2.93 7.055-7.055 2.93-7.055-2.93-2.93-7.055 2.93-7.055 7.055-2.93zM11.016 17.016v-6h1.969v6h-1.969z"></path>
</symbol>
<symbol id="icon-swap_horiz" viewBox="0 0 24 24">
<title>swap_horiz</title>
<path d="M21 9l-3.984 3.984v-3h-7.031v-1.969h7.031v-3zM6.984 11.016v3h7.031v1.969h-7.031v3l-3.984-3.984z"></path>
</symbol>
<symbol id="icon-swap_vert" viewBox="0 0 24 24">
<title>swap_vert</title>
<path d="M9 3l3.984 3.984h-3v7.031h-1.969v-7.031h-3zM15.984 17.016h3l-3.984 3.984-3.984-3.984h3v-7.031h1.969v7.031z"></path>
</symbol>
<symbol id="icon-help_outline" viewBox="0 0 24 24">
<title>help_outline</title>
<path d="M12 6q1.641 0 2.813 1.172t1.172 2.813q0 1.266-1.5 2.602t-1.5 2.414h-1.969q0-1.078 0.469-1.852t1.031-1.125 1.031-0.867 0.469-1.172q0-0.797-0.609-1.383t-1.406-0.586-1.406 0.586-0.609 1.383h-1.969q0-1.641 1.172-2.813t2.813-1.172zM12 20.016q3.281 0 5.648-2.367t2.367-5.648-2.367-5.648-5.648-2.367-5.648 2.367-2.367 5.648 2.367 5.648 5.648 2.367zM12 2.016q4.125 0 7.055 2.93t2.93 7.055-2.93 7.055-7.055 2.93-7.055-2.93-2.93-7.055 2.93-7.055 7.055-2.93zM11.016 18v-2.016h1.969v2.016h-1.969z"></path>
</symbol>
<symbol id="icon-accessible" viewBox="0 0 24 24">
<title>accessible</title>
<path d="M12.844 18h2.063q-0.328 1.641-1.781 2.813t-3.141 1.172q-2.063 0-3.516-1.453t-1.453-3.516q0-1.688 1.172-3.141t2.813-1.781v2.063q-0.891 0.328-1.453 1.102t-0.563 1.758q0 1.219 0.891 2.109t2.109 0.891q0.984 0 1.758-0.563t1.102-1.453zM9.984 9.094q0-1.125 0.984-1.781t2.016-0.047h0.047v0.047q0.328 0.141 0.609 0.422l1.313 1.453q1.688 1.828 4.031 1.828v1.969q-2.625 0-4.969-1.922v3.422h3q0.797 0 1.383 0.609t0.586 1.406v5.484h-1.969v-4.969h-5.016q-0.797 0-1.406-0.609t-0.609-1.406v-5.906zM9.984 3.984q0-0.844 0.586-1.406t1.43-0.563 1.43 0.563 0.586 1.406-0.586 1.43-1.43 0.586-1.43-0.586-0.586-1.43z"></path>
</symbol>
<symbol id="icon-motorcycle" viewBox="0 0 24 24">
<title>motorcycle</title>
<path d="M17.484 17.016q1.031 0 1.758-0.75t0.727-1.781-0.727-1.758-1.758-0.727-1.781 0.727-0.75 1.758 0.75 1.781 1.781 0.75zM8.859 15.281l-2.859-0.047v-1.5h2.859q-0.563-1.734-2.391-1.734-1.031 0-1.758 0.727t-0.727 1.758 0.727 1.781 1.758 0.75q0.75 0 1.477-0.516t0.914-1.219zM17.484 9.984q1.875 0 3.188 1.313t1.313 3.188-1.313 3.188-3.188 1.313-3.188-1.313-1.313-3.188q0-0.094 0.023-0.234t0.023-0.234l-2.109 1.266q-0.281 1.547-1.57 2.625t-2.836 1.078q-1.875 0-3.188-1.313t-1.313-3.188 1.289-3.188 3.164-1.313h8.109l-1.969-1.969h-3.609v-2.016h4.406l4.031 4.031q0-0.047 0.047-0.047z"></path>
</symbol>
<symbol id="icon-check_circle_outline" viewBox="0 0 24 24">
<title>check_circle_outline</title>
<path d="M12 20.016q3.281 0 5.648-2.367t2.367-5.648-2.367-5.648-5.648-2.367-5.648 2.367-2.367 5.648 2.367 5.648 5.648 2.367zM12 2.016q4.125 0 7.055 2.93t2.93 7.055-2.93 7.055-7.055 2.93-7.055-2.93-2.93-7.055 2.93-7.055 7.055-2.93zM16.594 7.594l1.406 1.406-8.016 8.016-4.969-5.016 1.406-1.406 3.563 3.563z"></path>
</symbol>
<symbol id="icon-accessible_forward" viewBox="0 0 24 24">
<title>accessible_forward</title>
<path d="M17.016 13.5q0.797 0 1.383 0.609t0.586 1.406v5.484h-1.969v-5.016h-5.016q-1.078 0-1.688-0.961t-0.141-1.945l1.828-4.078h-2.203l-0.656 1.547-1.922-0.563 0.656-1.781q0.516-1.219 1.875-1.219h5.203q1.125 0 1.734 0.938t0.141 1.922l-1.688 3.656h1.875zM14.016 17.016q0 2.063-1.477 3.516t-3.539 1.453-3.539-1.453-1.477-3.516 1.477-3.539 3.539-1.477v2.016q-1.219 0-2.109 0.891t-0.891 2.109 0.891 2.109 2.109 0.891 2.109-0.891 0.891-2.109h2.016zM15 4.547q0-0.844 0.586-1.43t1.43-0.586 1.406 0.586 0.563 1.43-0.563 1.43-1.406 0.586-1.43-0.586-0.586-1.43z"></path>
</symbol>
<symbol id="icon-compress" viewBox="0 0 24 24">
<title>compress</title>
<path d="M3.984 12h16.031v2.016h-16.031v-2.016zM3.984 9h16.031v2.016h-16.031v-2.016zM15.984 3.984l-3.984 4.031-3.984-4.031h3v-3h1.969v3h3zM8.016 18.984l3.984-3.984 3.984 3.984h-3v3h-1.969v-3h-3z"></path>
</symbol>
<symbol id="icon-expand" viewBox="0 0 24 24">
<title>expand</title>
<path d="M12.984 9v6h3l-3.984 3.984-3.984-3.984h3v-6h-3l3.984-3.984 3.984 3.984h-3zM3.984 2.016h16.031v1.969h-16.031v-1.969zM3.984 20.016h16.031v1.969h-16.031v-1.969z"></path>
</symbol>
<symbol id="icon-two_wheeler" viewBox="0 0 24 24">
<title>two_wheeler</title>
<path d="M5.484 12.516q-0.797 0-1.383 0.586t-0.586 1.383 0.586 1.406 1.383 0.609 1.406-0.609 0.609-1.406-0.609-1.383-1.406-0.586zM18.516 11.016q1.453 0 2.461 1.008t1.008 2.461-1.008 2.484-2.461 1.031-2.484-1.031-1.031-2.484q0-1.547 1.172-2.578l-0.422-0.516-2.766 4.594h-3l-1.031-0.938q-0.234 1.266-1.219 2.109t-2.25 0.844q-1.453 0-2.461-1.031t-1.008-2.484q0-0.563 0.188-1.102t0.492-0.961 0.773-0.75 0.984-0.516l-0.938-0.797h-1.5v-0.844h3.656l2.109 1.313 3.375-1.313h3.047l-1.219-1.5h-1.969v-1.031h2.859l1.219 1.547 2.906-1.125v2.109h-2.109l1.313 1.734q0.234-0.047 0.445-0.117t0.422-0.094 0.445-0.023zM18.516 12.516q-0.797 0-1.406 0.586t-0.609 1.383 0.609 1.406 1.406 0.609 1.383-0.609 0.586-1.406-0.586-1.383-1.383-0.586z"></path>
</symbol>
<symbol id="icon-height" viewBox="0 0 24 24">
<title>height</title>
<path d="M12.984 6.984v10.031h3l-3.984 3.984-3.984-3.984h3v-10.031h-3l3.984-3.984 3.984 3.984h-3z"></path>
</symbol>
<symbol id="icon-sync_alt" viewBox="0 0 24 24">
<title>sync_alt</title>
<path d="M2.016 15.984l3.984-3.984v3h15v2.016h-15v3zM21.984 8.016l-3.984 3.984v-3h-15v-2.016h15v-3z"></path>
</symbol>
<symbol id="icon-emoji_people" viewBox="0 0 24 24">
<title>emoji_people</title>
<path d="M15.891 8.109l4.453 4.5-1.406 1.406-3.938-3.984v11.953h-2.016v-6h-1.969v6h-2.016v-13.266q-2.203-0.656-3.609-2.508t-1.406-4.195h2.016q0 2.063 1.453 3.516t3.516 1.453h2.578q1.219 0 2.344 1.125zM9.984 3.984q0-0.844 0.586-1.406t1.43-0.563 1.43 0.563 0.586 1.406-0.586 1.43-1.43 0.586-1.43-0.586-0.586-1.43z"></path>
</symbol>
<symbol id="icon-emoji_transportation" viewBox="0 0 24 24">
<title>emoji_transportation</title>
<path d="M5.016 18.984h1.969v2.016h-1.969v-2.016zM5.016 15h1.969v2.016h-1.969v-2.016zM9.984 5.016h2.016v1.969h-2.016v-1.969zM5.016 11.016h1.969v1.969h-1.969v-1.969zM14.016 9v-5.016h-6v5.016h-5.016v12h-0.984v-12.984h4.969v-5.016h8.016v6h-0.984zM20.016 17.016q0.422 0 0.703-0.305t0.281-0.727-0.281-0.703-0.703-0.281-0.727 0.281-0.305 0.703 0.305 0.727 0.727 0.305zM12 17.016q0.422 0 0.703-0.305t0.281-0.727-0.281-0.703-0.703-0.281-0.703 0.281-0.281 0.703 0.281 0.727 0.703 0.305zM12.422 11.016l-1.031 3h9.234l-1.031-3h-7.172zM20.578 10.641l1.406 4.125v5.531q0 0.281-0.211 0.492t-0.492 0.211h-0.609q-0.281 0-0.469-0.234t-0.188-0.516v-1.266h-8.016v1.266q0 0.281-0.211 0.516t-0.492 0.234h-0.609q-0.656 0-0.656-0.703l-0.047-5.531 1.453-4.125q0.234-0.656 0.984-0.656h7.172q0.75 0 0.984 0.656z"></path>
</symbol>
<symbol id="icon-king_bed" viewBox="0 0 24 24">
<title>king_bed</title>
<path d="M18 9.984v-3h-5.016v3h5.016zM11.016 9.984v-3h-5.016v3h5.016zM20.016 9.984q0.797 0 1.383 0.609t0.586 1.406v5.016h-1.313l-0.656 1.969h-1.031l-0.656-1.969h-12.656l-0.656 1.969h-1.031l-0.656-1.969h-1.313v-5.016q0-0.797 0.586-1.406t1.383-0.609v-3q0-0.797 0.609-1.383t1.406-0.586h12q0.797 0 1.406 0.586t0.609 1.383v3z"></path>
</symbol>
<symbol id="icon-park" viewBox="0 0 24 24">
<title>park</title>
<path d="M17.016 12l3.984 6h-7.031v3.984h-3.938v-3.984h-6.938l3.891-6h-1.922l6.938-9.984 6.984 9.984h-1.969z"></path>
</symbol>
<symbol id="icon-airport_shuttle" viewBox="0 0 24 24">
<title>airport_shuttle</title>
<path d="M15 11.016h5.016l-4.031-4.031h-0.984v4.031zM17.484 17.484q0.609 0 1.055-0.445t0.445-1.055-0.445-1.055-1.055-0.445-1.055 0.445-0.445 1.055 0.445 1.055 1.055 0.445zM12.984 11.016v-4.031h-3.984v4.031h3.984zM6 17.484q0.656 0 1.078-0.445t0.422-1.055-0.422-1.055-1.078-0.445-1.078 0.445-0.422 1.055 0.422 1.055 1.078 0.445zM3 11.016h3.984v-4.031h-3.984v4.031zM17.016 5.016l6 6v4.969h-2.531q0 1.219-0.891 2.109t-2.109 0.891-2.109-0.891-0.891-2.109h-5.484q0 1.219-0.891 2.109t-2.109 0.891-2.109-0.891-0.891-2.109h-2.016v-9q0-0.844 0.586-1.406t1.43-0.563h14.016z"></path>
</symbol>
<symbol id="icon-add_road" viewBox="0 0 24 24">
<title>add_road</title>
<path d="M20.016 18v-3h-2.016v3h-3v2.016h3v3h2.016v-3h3v-2.016h-3zM18 3.984h2.016v9h-2.016v-9zM3.984 3.984h2.016v16.031h-2.016v-16.031zM11.016 3.984h1.969v4.031h-1.969v-4.031zM11.016 9.984h1.969v4.031h-1.969v-4.031zM11.016 15.984h1.969v4.031h-1.969v-4.031z"></path>
</symbol>
<symbol id="icon-bike_scooter" viewBox="0 0 24 24">
<title>bike_scooter</title>
<path d="M9.984 14.016h0.75l-1.922-8.438q-0.141-0.703-0.703-1.148t-1.219-0.445h-3.891v2.016h3.891l1.406 6.234q-1.641 0.516-2.789 1.781t-1.43 3h-4.078v1.969h6v-0.984q0-1.125 0.539-2.016t1.453-1.43 1.992-0.539zM18.984 8.016h-0.797l-1.359-3.703q-0.188-0.609-0.703-0.961t-1.172-0.352h-3.938v2.016h3.938l1.125 3h-5.672l0.469 1.969h4.125q-0.328 0.469-0.563 0.961t-0.328 1.055h-2.813l0.469 2.016h2.344q0.188 1.078 0.867 1.969t1.641 1.43 2.133 0.586q1.406 0.047 2.602-0.609t1.922-1.828 0.727-2.578-0.656-2.531-1.805-1.781-2.555-0.656zM18.984 15.984q-0.844 0-1.523-0.398t-1.078-1.078-0.398-1.523q0-0.703 0.281-1.289t0.797-0.961l0.938 2.625 1.875-0.656-0.938-2.672 0.023-0.023t0.070-0.023q0.797 0 1.477 0.398t1.102 1.078 0.422 1.523-0.422 1.523-1.102 1.078-1.523 0.398zM9.984 15q-0.797 0-1.477 0.398t-1.102 1.078-0.422 1.523 0.422 1.523 1.102 1.078 1.477 0.398q0.844 0 1.523-0.398t1.078-1.078 0.398-1.523-0.398-1.523-1.078-1.078-1.523-0.398zM9.984 18.984q-0.375 0-0.68-0.281t-0.305-0.703 0.305-0.703 0.68-0.281q0.422 0 0.727 0.281t0.305 0.703-0.305 0.703-0.727 0.281z"></path>
</symbol>
<symbol id="icon-grass" viewBox="0 0 24 24">
<title>grass</title>
<path d="M12 20.016h-9.984v-2.016h5.719q-0.516-2.109-2.063-3.656t-3.656-2.063q0.469-0.141 0.961-0.211t1.008-0.070q1.688 0 3.141 0.633t2.531 1.711 1.711 2.531 0.633 3.141zM21.984 12.281q-0.469-0.141-0.961-0.211t-1.008-0.070q-2.203 0-4.031 1.078t-2.859 2.859q0.234 0.469 0.398 0.984t0.258 1.078q0.188 0.984 0.188 2.016h8.016v-2.016h-5.766q0.563-2.109 2.109-3.656t3.656-2.063zM15.656 11.016q0.563-1.547 1.617-2.836t2.461-2.18q-1.594 0.094-3 0.727t-2.461 1.711-1.664 2.508-0.609 3.070v0 0q1.453-1.922 3.656-3zM11.438 8.859q-0.656-1.641-1.875-2.906t-2.859-1.969q1.078 1.406 1.688 3.117t0.609 3.586q0 0.188-0.023 0.328t-0.023 0.281q0.328 0.188 0.633 0.398t0.586 0.445q0.188-0.891 0.492-1.711t0.773-1.57z"></path>
</symbol>
<symbol id="icon-pedal_bike" viewBox="0 0 24 24">
<title>pedal_bike</title>
<path d="M18.188 9.984l-1.688-4.688q-0.234-0.563-0.75-0.938t-1.172-0.375h-2.578v2.016h2.578l1.5 3.984h-4.828l-0.375-0.984h1.125v-2.016h-5.016v2.016h1.781l1.781 5.016h-0.656q-0.188-1.125-0.867-2.016t-1.641-1.406-2.133-0.563q-1.406-0.094-2.602 0.586t-1.922 1.828-0.727 2.555 0.656 2.531 1.805 1.805 2.555 0.68q1.219 0 2.25-0.516t1.711-1.43 0.914-2.086h4.219q0.188 1.125 0.867 2.016t1.641 1.406 2.133 0.563q1.406 0.094 2.602-0.586t1.922-1.828 0.727-2.555-0.656-2.531-1.805-1.805-2.555-0.68h-0.797zM7.828 15.984q-0.328 0.891-1.078 1.453t-1.734 0.563q-0.844 0-1.523-0.398t-1.078-1.078-0.398-1.523 0.398-1.523 1.078-1.078 1.523-0.398q0.984 0 1.734 0.563t1.078 1.453h-2.813v1.969h2.813zM14.109 14.016h-1.406l-0.75-2.016h3.047q-0.328 0.422-0.563 0.938t-0.328 1.078zM18.984 18q-0.844 0-1.523-0.398t-1.078-1.078-0.398-1.523q0-0.703 0.281-1.289t0.797-1.008l0.938 2.672 1.875-0.703-0.938-2.672h0.094q0.797 0 1.477 0.398t1.102 1.078 0.422 1.523-0.422 1.523-1.102 1.078-1.523 0.398z"></path>
</symbol>
<symbol id="icon-tapas" viewBox="0 0 24 24">
<title>tapas</title>
<path d="M21.984 9.984v-9h-7.969v9q0 1.406 0.844 2.461t2.156 1.43v7.125h-2.016v2.016h6v-2.016h-2.016v-7.125q1.313-0.375 2.156-1.43t0.844-2.461zM20.016 3v3h-4.031v-3h4.031zM12.516 11.484q0 1.031-0.75 1.781t-1.781 0.75h-1.969v9h-2.016v-9h-2.016q-1.031 0-1.758-0.75t-0.727-1.781 0.727-1.758 1.758-0.727h2.016v-0.984h-2.016q-1.031 0-1.758-0.75t-0.727-1.781 0.727-1.758 1.758-0.727h2.016v-2.016h2.016v2.016h1.969q1.031 0 1.781 0.727t0.75 1.758-0.75 1.781-1.781 0.75h-1.969v0.984h1.969q1.031 0 1.781 0.727t0.75 1.758z"></path>
</symbol>
<symbol id="icon-elderly" viewBox="0 0 24 24">
<title>elderly</title>
<path d="M13.5 5.484q0.844 0 1.43-0.586t0.586-1.383q0-0.844-0.586-1.43t-1.43-0.586-1.43 0.586-0.586 1.43q0 0.797 0.586 1.383t1.43 0.586zM20.016 12.516v10.5h-1.031v-10.5q0-0.234-0.141-0.375t-0.328-0.141q-0.234 0-0.375 0.141t-0.141 0.375v0.984h-0.984v-0.703q-1.125-0.281-2.016-0.938t-1.5-1.547q-0.234 0.609-0.375 1.289t-0.141 1.383q0 0.188 0.023 0.352t0.023 0.352l1.969 2.813v6.516h-2.016v-5.016l-1.781-2.531-0.188 3.516-3 4.031-1.594-1.219 2.578-3.469v-5.344q0-0.844 0.141-1.688t0.375-1.688l-1.5 0.844v3.563h-2.016v-4.734l5.391-3.047q0.469-0.234 0.984-0.234t0.984 0.281q0.516 0.281 0.797 0.844v0l0.797 1.688q0.469 0.938 1.43 1.57t2.133 0.633q0.609 0 1.055 0.422t0.445 1.078z"></path>
</symbol>
<symbol id="icon-follow_the_signs" viewBox="0 0 24 24">
<title>follow_the_signs</title>
<path d="M9.516 5.484q0.797 0 1.383-0.586t0.586-1.383q0-0.844-0.586-1.43t-1.383-0.586q-0.844 0-1.43 0.586t-0.586 1.43q0 0.797 0.586 1.383t1.43 0.586zM5.766 8.906l-2.766 14.109h2.109l1.734-8.016 2.156 2.016v6h2.016v-7.547l-2.063-2.063 0.609-3q0.984 1.172 2.391 1.875t3.047 0.703v-1.969q-1.406 0-2.531-0.68t-1.828-1.805l-0.938-1.594q-0.281-0.422-0.727-0.68t-0.961-0.258q-0.375 0-0.75 0.141l-5.25 2.156v4.688h1.969v-3.328zM12.984 2.016v6.984h3.75v14.016h1.5v-14.016h3.75v-6.984h-9zM18 8.016v-1.781h-3.516v-1.5h3.516v-1.734l2.484 2.484z"></path>
</symbol>
<symbol id="icon-trash-o" viewBox="0 0 19 24">
<title>trash-o</title>
<path d="M6.857 9.857v7.714c0 0.241-0.188 0.429-0.429 0.429h-0.857c-0.241 0-0.429-0.188-0.429-0.429v-7.714c0-0.241 0.188-0.429 0.429-0.429h0.857c0.241 0 0.429 0.188 0.429 0.429zM10.286 9.857v7.714c0 0.241-0.188 0.429-0.429 0.429h-0.857c-0.241 0-0.429-0.188-0.429-0.429v-7.714c0-0.241 0.188-0.429 0.429-0.429h0.857c0.241 0 0.429 0.188 0.429 0.429zM13.714 9.857v7.714c0 0.241-0.188 0.429-0.429 0.429h-0.857c-0.241 0-0.429-0.188-0.429-0.429v-7.714c0-0.241 0.188-0.429 0.429-0.429h0.857c0.241 0 0.429 0.188 0.429 0.429zM15.429 19.554v-12.696h-12v12.696c0 0.643 0.362 1.018 0.429 1.018h11.143c0.067 0 0.429-0.375 0.429-1.018zM6.429 5.143h6l-0.643-1.567c-0.040-0.054-0.161-0.134-0.228-0.147h-4.246c-0.080 0.013-0.188 0.094-0.228 0.147zM18.857 5.571v0.857c0 0.241-0.188 0.429-0.429 0.429h-1.286v12.696c0 1.473-0.964 2.732-2.143 2.732h-11.143c-1.179 0-2.143-1.205-2.143-2.679v-12.75h-1.286c-0.241 0-0.429-0.188-0.429-0.429v-0.857c0-0.241 0.188-0.429 0.429-0.429h4.138l0.938-2.237c0.268-0.656 1.071-1.192 1.781-1.192h4.286c0.71 0 1.513 0.536 1.781 1.192l0.938 2.237h4.138c0.241 0 0.429 0.188 0.429 0.429z"></path>
</symbol>
<symbol id="icon-home" viewBox="0 0 22 24">
<title>home</title>
<path d="M18.857 13.286v6.429c0 0.469-0.388 0.857-0.857 0.857h-5.143v-5.143h-3.429v5.143h-5.143c-0.469 0-0.857-0.388-0.857-0.857v-6.429c0-0.027 0.013-0.054 0.013-0.080l7.701-6.348 7.701 6.348c0.013 0.027 0.013 0.054 0.013 0.080zM21.844 12.362l-0.83 0.991c-0.067 0.080-0.174 0.134-0.281 0.147h-0.040c-0.107 0-0.201-0.027-0.281-0.094l-9.268-7.728-9.268 7.728c-0.094 0.067-0.201 0.107-0.321 0.094-0.107-0.013-0.214-0.067-0.281-0.147l-0.83-0.991c-0.147-0.174-0.121-0.455 0.054-0.603l9.629-8.022c0.563-0.469 1.473-0.469 2.036 0l3.268 2.732v-2.612c0-0.241 0.188-0.429 0.429-0.429h2.571c0.241 0 0.429 0.188 0.429 0.429v5.464l2.933 2.438c0.174 0.147 0.201 0.429 0.054 0.603z"></path>
</symbol>
<symbol id="icon-road" viewBox="0 0 26 24">
<title>road</title>
<path d="M14.879 13.339v-0.054l-0.321-4.286c-0.013-0.241-0.228-0.429-0.455-0.429h-2.491c-0.228 0-0.442 0.188-0.455 0.429l-0.321 4.286v0.054c-0.013 0.214 0.188 0.375 0.388 0.375h3.268c0.201 0 0.402-0.161 0.388-0.375zM25.045 19.594c0 0.388-0.107 0.978-0.616 0.978h-9.429c0.228 0 0.415-0.188 0.402-0.429l-0.268-3.429c-0.013-0.241-0.228-0.429-0.455-0.429h-3.643c-0.228 0-0.442 0.188-0.455 0.429l-0.268 3.429c-0.013 0.241 0.174 0.429 0.402 0.429h-9.429c-0.509 0-0.616-0.589-0.616-0.978 0-0.536 0.147-1.071 0.348-1.554l5.585-13.982c0.134-0.335 0.496-0.629 0.857-0.629h4.54c-0.228 0-0.442 0.188-0.455 0.429l-0.201 2.571c-0.013 0.241 0.161 0.429 0.402 0.429h2.223c0.241 0 0.415-0.188 0.402-0.429l-0.201-2.571c-0.013-0.241-0.228-0.429-0.455-0.429h4.54c0.362 0 0.723 0.295 0.857 0.629l5.585 13.982c0.201 0.482 0.348 1.018 0.348 1.554z"></path>
</symbol>
<symbol id="icon-plus-circle" viewBox="0 0 21 24">
<title>plus-circle</title>
<path d="M16.286 12.857v-1.714c0-0.469-0.388-0.857-0.857-0.857h-3.429v-3.429c0-0.469-0.388-0.857-0.857-0.857h-1.714c-0.469 0-0.857 0.388-0.857 0.857v3.429h-3.429c-0.469 0-0.857 0.388-0.857 0.857v1.714c0 0.469 0.388 0.857 0.857 0.857h3.429v3.429c0 0.469 0.388 0.857 0.857 0.857h1.714c0.469 0 0.857-0.388 0.857-0.857v-3.429h3.429c0.469 0 0.857-0.388 0.857-0.857zM20.571 12c0 5.679-4.607 10.286-10.286 10.286s-10.286-4.607-10.286-10.286 4.607-10.286 10.286-10.286 10.286 4.607 10.286 10.286z"></path>
</symbol>
<symbol id="icon-minus-circle" viewBox="0 0 21 24">
<title>minus-circle</title>
<path d="M16.286 12.857v-1.714c0-0.469-0.388-0.857-0.857-0.857h-10.286c-0.469 0-0.857 0.388-0.857 0.857v1.714c0 0.469 0.388 0.857 0.857 0.857h10.286c0.469 0 0.857-0.388 0.857-0.857zM20.571 12c0 5.679-4.607 10.286-10.286 10.286s-10.286-4.607-10.286-10.286 4.607-10.286 10.286-10.286 10.286 4.607 10.286 10.286z"></path>
</symbol>
<symbol id="icon-times-circle" viewBox="0 0 21 24">
<title>times-circle</title>
<path d="M15.388 15.027c0-0.228-0.094-0.442-0.254-0.603l-2.424-2.424 2.424-2.424c0.161-0.161 0.254-0.375 0.254-0.603s-0.094-0.455-0.254-0.616l-1.205-1.205c-0.161-0.161-0.388-0.254-0.616-0.254s-0.442 0.094-0.603 0.254l-2.424 2.424-2.424-2.424c-0.161-0.161-0.375-0.254-0.603-0.254s-0.455 0.094-0.616 0.254l-1.205 1.205c-0.161 0.161-0.254 0.388-0.254 0.616s0.094 0.442 0.254 0.603l2.424 2.424-2.424 2.424c-0.161 0.161-0.254 0.375-0.254 0.603s0.094 0.455 0.254 0.616l1.205 1.205c0.161 0.161 0.388 0.254 0.616 0.254s0.442-0.094 0.603-0.254l2.424-2.424 2.424 2.424c0.161 0.161 0.375 0.254 0.603 0.254s0.455-0.094 0.616-0.254l1.205-1.205c0.161-0.161 0.254-0.388 0.254-0.616zM20.571 12c0 5.679-4.607 10.286-10.286 10.286s-10.286-4.607-10.286-10.286 4.607-10.286 10.286-10.286 10.286 4.607 10.286 10.286z"></path>
</symbol>
<symbol id="icon-check-circle" viewBox="0 0 21 24">
<title>check-circle</title>
<path d="M17.196 9.83c0-0.228-0.080-0.455-0.241-0.616l-1.219-1.205c-0.161-0.161-0.375-0.254-0.603-0.254s-0.442 0.094-0.603 0.254l-5.464 5.451-3.027-3.027c-0.161-0.161-0.375-0.254-0.603-0.254s-0.442 0.094-0.603 0.254l-1.219 1.205c-0.161 0.161-0.241 0.388-0.241 0.616s0.080 0.442 0.241 0.603l4.848 4.848c0.161 0.161 0.388 0.254 0.603 0.254 0.228 0 0.455-0.094 0.616-0.254l7.272-7.272c0.161-0.161 0.241-0.375 0.241-0.603zM20.571 12c0 5.679-4.607 10.286-10.286 10.286s-10.286-4.607-10.286-10.286 4.607-10.286 10.286-10.286 10.286 4.607 10.286 10.286z"></path>
</symbol>
<symbol id="icon-question-circle" viewBox="0 0 21 24">
<title>question-circle</title>
<path d="M12 18.429v-2.571c0-0.241-0.188-0.429-0.429-0.429h-2.571c-0.241 0-0.429 0.188-0.429 0.429v2.571c0 0.241 0.188 0.429 0.429 0.429h2.571c0.241 0 0.429-0.188 0.429-0.429zM15.429 9.429c0-2.451-2.571-4.286-4.875-4.286-2.183 0-3.817 0.937-4.969 2.853-0.121 0.188-0.067 0.429 0.107 0.563l1.768 1.339c0.067 0.054 0.161 0.080 0.254 0.080 0.121 0 0.254-0.054 0.335-0.161 0.629-0.804 0.897-1.045 1.152-1.232 0.228-0.161 0.67-0.321 1.152-0.321 0.857 0 1.647 0.549 1.647 1.138 0 0.696-0.362 1.045-1.179 1.42-0.951 0.429-2.25 1.54-2.25 2.839v0.482c0 0.241 0.188 0.429 0.429 0.429h2.571c0.241 0 0.429-0.188 0.429-0.429v0c0-0.308 0.388-0.964 1.018-1.326 1.018-0.576 2.411-1.353 2.411-3.388zM20.571 12c0 5.679-4.607 10.286-10.286 10.286s-10.286-4.607-10.286-10.286 4.607-10.286 10.286-10.286 10.286 4.607 10.286 10.286z"></path>
</symbol>
<symbol id="icon-info-circle" viewBox="0 0 21 24">
<title>info-circle</title>
<path d="M13.714 18.429v-2.143c0-0.241-0.188-0.429-0.429-0.429h-1.286v-6.857c0-0.241-0.188-0.429-0.429-0.429h-4.286c-0.241 0-0.429 0.188-0.429 0.429v2.143c0 0.241 0.188 0.429 0.429 0.429h1.286v4.286h-1.286c-0.241 0-0.429 0.187-0.429 0.429v2.143c0 0.241 0.188 0.429 0.429 0.429h6c0.241 0 0.429-0.188 0.429-0.429zM12 6.429v-2.143c0-0.241-0.188-0.429-0.429-0.429h-2.571c-0.241 0-0.429 0.188-0.429 0.429v2.143c0 0.241 0.188 0.429 0.429 0.429h2.571c0.241 0 0.429-0.188 0.429-0.429zM20.571 12c0 5.679-4.607 10.286-10.286 10.286s-10.286-4.607-10.286-10.286 4.607-10.286 10.286-10.286 10.286 4.607 10.286 10.286z"></path>
</symbol>
<symbol id="icon-ban" viewBox="0 0 21 24">
<title>ban</title>
<path d="M17.571 11.96c0-1.46-0.429-2.813-1.165-3.951l-10.098 10.085c1.152 0.75 2.518 1.192 3.978 1.192 4.018 0 7.286-3.281 7.286-7.326zM4.192 15.964l10.112-10.098c-1.152-0.777-2.531-1.219-4.018-1.219-4.018 0-7.286 3.281-7.286 7.313 0 1.487 0.442 2.853 1.192 4.004zM20.571 11.96c0 5.705-4.607 10.326-10.286 10.326s-10.286-4.621-10.286-10.326c0-5.692 4.607-10.313 10.286-10.313s10.286 4.621 10.286 10.313z"></path>
</symbol>
<symbol id="icon-exclamation-circle" viewBox="0 0 21 24">
<title>exclamation-circle</title>
<path d="M10.286 1.714c5.679 0 10.286 4.607 10.286 10.286s-4.607 10.286-10.286 10.286-10.286-4.607-10.286-10.286 4.607-10.286 10.286-10.286zM12 18.415v-2.545c0-0.241-0.188-0.442-0.415-0.442h-2.571c-0.241 0-0.442 0.201-0.442 0.442v2.545c0 0.241 0.201 0.442 0.442 0.442h2.571c0.228 0 0.415-0.201 0.415-0.442zM11.973 13.808l0.241-8.317c0-0.094-0.040-0.188-0.134-0.241-0.080-0.067-0.201-0.107-0.321-0.107h-2.946c-0.121 0-0.241 0.040-0.321 0.107-0.094 0.054-0.134 0.147-0.134 0.241l0.228 8.317c0 0.188 0.201 0.335 0.455 0.335h2.478c0.241 0 0.442-0.147 0.455-0.335z"></path>
</symbol>
<symbol id="icon-automobile" viewBox="0 0 27 24">
<title>automobile</title>
<path d="M6.429 14.571c0-1.179-0.964-2.143-2.143-2.143s-2.143 0.964-2.143 2.143 0.964 2.143 2.143 2.143 2.143-0.964 2.143-2.143zM6.911 10.286h13.607l-1.192-4.781c-0.040-0.147-0.308-0.362-0.469-0.362h-10.286c-0.161 0-0.429 0.214-0.469 0.362zM25.286 14.571c0-1.179-0.964-2.143-2.143-2.143s-2.143 0.964-2.143 2.143 0.964 2.143 2.143 2.143 2.143-0.964 2.143-2.143zM27.429 13.286v5.143c0 0.241-0.188 0.429-0.429 0.429h-1.286v1.714c0 1.42-1.152 2.571-2.571 2.571s-2.571-1.152-2.571-2.571v-1.714h-13.714v1.714c0 1.42-1.152 2.571-2.571 2.571s-2.571-1.152-2.571-2.571v-1.714h-1.286c-0.241 0-0.429-0.188-0.429-0.429v-5.143c0-1.661 1.339-3 3-3h0.375l1.406-5.612c0.415-1.688 2.049-2.96 3.79-2.96h10.286c1.741 0 3.375 1.272 3.79 2.96l1.406 5.612h0.375c1.661 0 3 1.339 3 3z"></path>
</symbol>
<symbol id="icon-train1" viewBox="0 0 21 24">
<title>train1</title>
<path d="M14.571 0c3.308 0 6 1.915 6 4.286v12c0 2.317-2.558 4.192-5.772 4.272l2.853 2.705c0.281 0.268 0.094 0.737-0.295 0.737h-14.143c-0.388 0-0.576-0.469-0.295-0.737l2.853-2.705c-3.214-0.080-5.772-1.955-5.772-4.272v-12c0-2.371 2.692-4.286 6-4.286h8.571zM10.286 18c1.42 0 2.571-1.152 2.571-2.571s-1.152-2.571-2.571-2.571-2.571 1.152-2.571 2.571 1.152 2.571 2.571 2.571zM18 10.286v-6.857h-15.429v6.857h15.429z"></path>
</symbol>
<symbol id="icon-subway" viewBox="0 0 21 24">
<title>subway</title>
<path d="M14.571 0c3.308 0 6 1.915 6 4.286v12c0 2.317-2.558 4.192-5.772 4.272l2.853 2.705c0.281 0.268 0.094 0.737-0.295 0.737h-14.143c-0.388 0-0.576-0.469-0.295-0.737l2.853-2.705c-3.214-0.080-5.772-1.955-5.772-4.272v-12c0-2.371 2.692-4.286 6-4.286h8.571zM3.857 17.571c1.179 0 2.143-0.964 2.143-2.143s-0.964-2.143-2.143-2.143-2.143 0.964-2.143 2.143 0.964 2.143 2.143 2.143zM9.429 10.286v-6.857h-7.286v6.857h7.286zM16.714 17.571c1.179 0 2.143-0.964 2.143-2.143s-0.964-2.143-2.143-2.143-2.143 0.964-2.143 2.143 0.964 2.143 2.143 2.143zM18.857 10.286v-6.857h-7.714v6.857h7.714z"></path>
</symbol>
<symbol id="icon-map-signs" viewBox="0 0 24 24">
<title>map-signs</title>
<path d="M23.371 3.978c0.174 0.174 0.174 0.442 0 0.616l-1.888 1.888c-0.241 0.241-0.576 0.375-0.911 0.375h-18c-0.469 0-0.857-0.388-0.857-0.857v-3.429c0-0.469 0.388-0.857 0.857-0.857h7.714v-0.857c0-0.469 0.388-0.857 0.857-0.857h1.714c0.469 0 0.857 0.388 0.857 0.857v0.857h6.857c0.335 0 0.67 0.134 0.911 0.375zM10.286 16.286h3.429v6.857c0 0.469-0.388 0.857-0.857 0.857h-1.714c-0.469 0-0.857-0.388-0.857-0.857v-6.857zM21.429 10.286c0.469 0 0.857 0.388 0.857 0.857v3.429c0 0.469-0.388 0.857-0.857 0.857h-18c-0.335 0-0.67-0.134-0.911-0.375l-1.888-1.888c-0.174-0.174-0.174-0.442 0-0.616l1.888-1.888c0.241-0.241 0.576-0.375 0.911-0.375h6.857v-2.571h3.429v2.571h7.714z"></path>
</symbol>
<symbol id="icon-home3" viewBox="0 0 24 24">
<title>home3</title>
<path d="M24 14.25l-4.5-4.5v-6.75h-3v3.75l-4.5-4.5-12 12v0.75h3v7.5h7.5v-4.5h3v4.5h7.5v-7.5h3z"></path>
</symbol>
<symbol id="icon-image" viewBox="0 0 24 24">
<title>image</title>
<path d="M22.497 3c0.001 0.001 0.002 0.002 0.003 0.003v17.995c-0.001 0.001-0.002 0.002-0.003 0.003h-20.995c-0.001-0.001-0.002-0.002-0.003-0.003v-17.995c0.001-0.001 0.002-0.002 0.003-0.003h20.995zM22.5 1.5h-21c-0.825 0-1.5 0.675-1.5 1.5v18c0 0.825 0.675 1.5 1.5 1.5h21c0.825 0 1.5-0.675 1.5-1.5v-18c0-0.825-0.675-1.5-1.5-1.5v0z"></path>
<path d="M19.5 6.75c0 1.243-1.007 2.25-2.25 2.25s-2.25-1.007-2.25-2.25 1.007-2.25 2.25-2.25 2.25 1.007 2.25 2.25z"></path>
<path d="M21 19.5h-18v-3l5.25-9 6 7.5h1.5l5.25-4.5z"></path>
</symbol>
<symbol id="icon-images" viewBox="0 0 27 24">
<title>images</title>
<path d="M25.5 3h-1.5v-1.5c0-0.825-0.675-1.5-1.5-1.5h-21c-0.825 0-1.5 0.675-1.5 1.5v18c0 0.825 0.675 1.5 1.5 1.5h1.5v1.5c0 0.825 0.675 1.5 1.5 1.5h21c0.825 0 1.5-0.675 1.5-1.5v-18c0-0.825-0.675-1.5-1.5-1.5zM3 4.5v15h-1.497c-0.001-0.001-0.002-0.002-0.003-0.003v-17.995c0.001-0.001 0.002-0.002 0.003-0.003h20.995c0.001 0.001 0.002 0.002 0.003 0.003v1.497h-18c-0.825 0-1.5 0.675-1.5 1.5v0zM25.5 22.497c-0.001 0.001-0.002 0.002-0.003 0.003h-20.995c-0.001-0.001-0.002-0.002-0.003-0.003v-17.995c0.001-0.001 0.002-0.002 0.003-0.003h20.995c0.001 0.001 0.002 0.002 0.003 0.003v17.995z"></path>
<path d="M22.5 8.25c0 1.243-1.007 2.25-2.25 2.25s-2.25-1.007-2.25-2.25 1.007-2.25 2.25-2.25 2.25 1.007 2.25 2.25z"></path>
<path d="M24 21h-18v-3l5.25-9 6 7.5h1.5l5.25-4.5z"></path>
</symbol>
<symbol id="icon-camera" viewBox="0 0 24 24">
<title>camera</title>
<path d="M7.125 14.25c0 2.692 2.183 4.875 4.875 4.875s4.875-2.183 4.875-4.875-2.183-4.875-4.875-4.875-4.875 2.183-4.875 4.875zM22.5 6h-5.25c-0.375-1.5-0.75-3-2.25-3h-6c-1.5 0-1.875 1.5-2.25 3h-5.25c-0.825 0-1.5 0.675-1.5 1.5v13.5c0 0.825 0.675 1.5 1.5 1.5h21c0.825 0 1.5-0.675 1.5-1.5v-13.5c0-0.825-0.675-1.5-1.5-1.5zM12 20.906c-3.676 0-6.656-2.98-6.656-6.656s2.98-6.656 6.656-6.656c3.676 0 6.656 2.98 6.656 6.656s-2.98 6.656-6.656 6.656zM22.5 10.5h-3v-1.5h3v1.5z"></path>
</symbol>
<symbol id="icon-location" viewBox="0 0 24 24">
<title>location</title>
<path d="M12 0c-4.142 0-7.5 3.358-7.5 7.5 0 7.5 7.5 16.5 7.5 16.5s7.5-9 7.5-16.5c0-4.142-3.358-7.5-7.5-7.5zM12 12c-2.485 0-4.5-2.015-4.5-4.5s2.015-4.5 4.5-4.5 4.5 2.015 4.5 4.5-2.015 4.5-4.5 4.5z"></path>
</symbol>
<symbol id="icon-location2" viewBox="0 0 24 24">
<title>location2</title>
<path d="M12 0c-4.142 0-7.5 3.358-7.5 7.5 0 7.5 7.5 16.5 7.5 16.5s7.5-9 7.5-16.5c0-4.142-3.358-7.5-7.5-7.5zM12 12.094c-2.537 0-4.594-2.057-4.594-4.594s2.057-4.594 4.594-4.594 4.594 2.057 4.594 4.594-2.057 4.594-4.594 4.594zM9.094 7.5c0-1.605 1.301-2.906 2.906-2.906s2.906 1.301 2.906 2.906c0 1.605-1.301 2.906-2.906 2.906s-2.906-1.301-2.906-2.906z"></path>
</symbol>
<symbol id="icon-compass" viewBox="0 0 24 24">
<title>compass</title>
<path d="M12.75 24c-0.054 0-0.108-0.006-0.163-0.018-0.343-0.076-0.588-0.381-0.588-0.732v-11.25h-11.25c-0.352 0-0.656-0.244-0.732-0.588s0.096-0.693 0.415-0.842l22.5-10.5c0.286-0.133 0.624-0.074 0.848 0.149s0.283 0.562 0.149 0.848l-10.5 22.5c-0.125 0.268-0.393 0.433-0.679 0.433zM4.131 10.5h8.619c0.414 0 0.75 0.336 0.75 0.75v8.619l8.198-17.567-17.568 8.198z"></path>
</symbol>
<symbol id="icon-compass2" viewBox="0 0 24 24">
<title>compass2</title>
<path d="M12 0c-6.627 0-12 5.373-12 12s5.373 12 12 12 12-5.373 12-12-5.373-12-12-12zM2.25 12c0-5.385 4.365-9.75 9.75-9.75 2.568 0 4.904 0.993 6.645 2.616l-9.645 4.134-4.134 9.645c-1.623-1.741-2.616-4.077-2.616-6.645zM13.715 13.715l-6.002 2.572 2.572-6.002 3.43 3.43zM12 21.75c-2.568 0-4.904-0.993-6.645-2.616l9.645-4.134 4.134-9.645c1.623 1.741 2.616 4.077 2.616 6.645 0 5.385-4.365 9.75-9.75 9.75z"></path>
</symbol>
<symbol id="icon-map" viewBox="0 0 24 24">
<title>map</title>
<path d="M0 4.5l7.5-3v18l-7.5 3z"></path>
<path d="M9 0.75l7.5 4.5v17.25l-7.5-3.75z"></path>
<path d="M18 5.25l6-4.5v18l-6 4.5z"></path>
</symbol>
<symbol id="icon-map2" viewBox="0 0 24 24">
<title>map2</title>
<path d="M15.75 4.5l-7.5-3-8.25 3v18l8.25-3 7.5 3 8.25-3v-18l-8.25 3zM9 3.416l6 2.4v14.769l-6-2.4v-14.769zM1.5 5.551l6-2.182v14.808l-6 2.182v-14.808zM22.5 18.449l-6 2.182v-14.808l6-2.182v14.808z"></path>
</symbol>
<symbol id="icon-undo" viewBox="0 0 24 24">
<title>undo</title>
<path d="M12 1.5c-3.314 0-6.313 1.343-8.485 3.515l-3.515-3.515v9h9l-3.364-3.364c1.629-1.629 3.879-2.636 6.364-2.636 4.97 0 9 4.029 9 9 0 2.688-1.179 5.101-3.047 6.75l1.984 2.25c2.491-2.199 4.063-5.416 4.063-9 0-6.627-5.373-12-12-12z"></path>
</symbol>
<symbol id="icon-redo" viewBox="0 0 24 24">
<title>redo</title>
<path d="M0 13.5c0 3.584 1.571 6.801 4.063 9l1.984-2.25c-1.869-1.649-3.047-4.062-3.047-6.75 0-4.971 4.030-9 9-9 2.485 0 4.735 1.007 6.364 2.636l-3.364 3.364h9v-9l-3.515 3.515c-2.172-2.172-5.171-3.515-8.485-3.515-6.627 0-12 5.373-12 12z"></path>
</symbol>
<symbol id="icon-bubbles4" viewBox="0 0 27 24">
<title>bubbles4</title>
<path d="M11.25 3c-1.187 0-2.334 0.186-3.407 0.554-1.006 0.344-1.901 0.831-2.66 1.445-1.407 1.139-2.182 2.597-2.182 4.106 0 0.844 0.236 1.663 0.701 2.435 0.485 0.805 1.216 1.542 2.115 2.132 0.713 0.468 1.194 1.218 1.321 2.061 0.021 0.14 0.038 0.281 0.051 0.423 0.064-0.059 0.127-0.12 0.19-0.183 0.566-0.563 1.329-0.874 2.117-0.874 0.125 0 0.251 0.008 0.377 0.024 0.454 0.057 0.917 0.087 1.377 0.087 1.187 0 2.334-0.186 3.407-0.554 1.006-0.344 1.901-0.83 2.66-1.445 1.407-1.139 2.182-2.597 2.182-4.106s-0.775-2.967-2.182-4.106c-0.759-0.614-1.654-1.1-2.66-1.445-1.074-0.367-2.22-0.554-3.407-0.554zM11.25 0v0c6.213 0 11.25 4.076 11.25 9.104s-5.037 9.104-11.25 9.104c-0.597 0-1.182-0.038-1.754-0.11-2.417 2.407-5.207 2.838-7.996 2.902v-0.589c1.506-0.735 2.719-2.073 2.719-3.603 0-0.213-0.017-0.423-0.048-0.628-2.544-1.669-4.171-4.218-4.171-7.076 0-5.028 5.037-9.104 11.25-9.104zM23.344 20.407c0 1.311 0.851 2.459 2.156 3.088v0.505c-2.417-0.054-4.636-0.424-6.73-2.487-0.495 0.062-1.003 0.095-1.52 0.095-2.238 0-4.299-0.604-5.944-1.618 3.391-0.012 6.592-1.098 9.020-3.063 1.224-0.99 2.189-2.152 2.869-3.453 0.721-1.38 1.087-2.85 1.087-4.369 0-0.245-0.011-0.488-0.029-0.73 1.701 1.405 2.748 3.319 2.748 5.43 0 2.449-1.41 4.634-3.615 6.065-0.027 0.176-0.041 0.355-0.041 0.538z"></path>
</symbol>
<symbol id="icon-user" viewBox="0 0 24 24">
<title>user</title>
<path d="M13.5 16.561v-1.237c1.652-0.931 3-3.252 3-5.574 0-3.728 0-6.75-4.5-6.75s-4.5 3.022-4.5 6.75c0 2.322 1.348 4.643 3 5.574v1.237c-5.088 0.416-9 2.916-9 5.939h21c0-3.023-3.912-5.523-9-5.939z"></path>
</symbol>
<symbol id="icon-users" viewBox="0 0 27 24">
<title>users</title>
<path d="M18 18.061v-1.237c1.652-0.931 3-3.252 3-5.574 0-3.728 0-6.75-4.5-6.75s-4.5 3.022-4.5 6.75c0 2.322 1.348 4.643 3 5.574v1.237c-5.088 0.416-9 2.916-9 5.939h21c0-3.023-3.912-5.523-9-5.939z"></path>
<path d="M7.669 18.64c1.296-0.847 2.908-1.491 4.683-1.885-0.353-0.417-0.673-0.882-0.949-1.383-0.713-1.295-1.090-2.72-1.090-4.123 0-2.017 0-3.921 0.717-5.479 0.696-1.512 1.948-2.449 3.732-2.8-0.396-1.792-1.452-2.971-4.261-2.971-4.5 0-4.5 3.022-4.5 6.75 0 2.322 1.348 4.643 3 5.574v1.237c-5.088 0.416-9 2.916-9 5.939h6.539c0.34-0.303 0.717-0.59 1.129-0.86z"></path>
</symbol>
<symbol id="icon-hour-glass" viewBox="0 0 24 24">
<title>hour-glass</title>
<path d="M17.086 12c3.229-2.047 5.414-5.981 5.414-10.5 0-0.508-0.028-1.009-0.082-1.5h-20.837c-0.054 0.491-0.082 0.992-0.082 1.5 0 4.519 2.186 8.453 5.414 10.5-3.229 2.047-5.414 5.981-5.414 10.5 0 0.508 0.028 1.009 0.082 1.5h20.837c0.054-0.491 0.082-0.992 0.082-1.5 0-4.519-2.186-8.453-5.414-10.5zM3.75 22.5c0-4.381 1.879-8.096 5.25-9.321v-2.357c-3.371-1.226-5.25-4.94-5.25-9.321v0h16.5c0 4.381-1.879 8.096-5.25 9.321v2.357c3.371 1.226 5.25 4.941 5.25 9.321h-16.5zM14.522 15.694c-1.679-0.953-1.772-2.188-1.772-2.938v-1.505c0-0.75 0.089-1.99 1.775-2.945 0.902-0.524 1.683-1.321 2.275-2.305h-9.6c0.592 0.985 1.374 1.782 2.277 2.306 1.679 0.953 1.772 2.188 1.772 2.938v1.505c0 0.75-0.089 1.99-1.775 2.945-1.702 0.989-2.97 2.946-3.354 5.305h11.758c-0.384-2.36-1.653-4.318-3.357-5.306z"></path>
</symbol>
<symbol id="icon-spinner" viewBox="0 0 24 24">
<title>spinner</title>
<path d="M9 3c0-1.657 1.343-3 3-3s3 1.343 3 3c0 1.657-1.343 3-3 3s-3-1.343-3-3zM15.364 5.636c0-1.657 1.343-3 3-3s3 1.343 3 3c0 1.657-1.343 3-3 3s-3-1.343-3-3zM19.5 12c0-0.828 0.672-1.5 1.5-1.5s1.5 0.672 1.5 1.5c0 0.828-0.672 1.5-1.5 1.5s-1.5-0.672-1.5-1.5zM16.864 18.364c0-0.828 0.672-1.5 1.5-1.5s1.5 0.672 1.5 1.5c0 0.828-0.672 1.5-1.5 1.5s-1.5-0.672-1.5-1.5zM10.5 21c0 0 0 0 0 0 0-0.828 0.672-1.5 1.5-1.5s1.5 0.672 1.5 1.5c0 0 0 0 0 0 0 0.828-0.672 1.5-1.5 1.5s-1.5-0.672-1.5-1.5zM4.136 18.364c0 0 0 0 0 0 0-0.828 0.672-1.5 1.5-1.5s1.5 0.672 1.5 1.5c0 0 0 0 0 0 0 0.828-0.672 1.5-1.5 1.5s-1.5-0.672-1.5-1.5zM3.386 5.636c0 0 0 0 0 0 0-1.243 1.007-2.25 2.25-2.25s2.25 1.007 2.25 2.25c0 0 0 0 0 0 0 1.243-1.007 2.25-2.25 2.25s-2.25-1.007-2.25-2.25zM1.313 12c0-0.932 0.756-1.688 1.688-1.688s1.688 0.756 1.688 1.688c0 0.932-0.756 1.688-1.688 1.688s-1.688-0.756-1.688-1.688z"></path>
</symbol>
<symbol id="icon-spinner2" viewBox="0 0 24 24">
<title>spinner2</title>
<path d="M24 12c-0.030-1.567-0.37-3.129-0.998-4.558-0.626-1.43-1.534-2.725-2.649-3.795s-2.436-1.918-3.867-2.476c-1.43-0.561-2.967-0.829-4.486-0.796-1.519 0.030-3.031 0.36-4.414 0.969-1.384 0.607-2.638 1.488-3.673 2.568s-1.855 2.36-2.395 3.745c-0.542 1.384-0.8 2.872-0.767 4.342 0.030 1.471 0.351 2.933 0.941 4.27 0.588 1.338 1.441 2.551 2.487 3.552s2.284 1.793 3.624 2.314c1.339 0.523 2.776 0.771 4.199 0.739 1.423-0.030 2.835-0.341 4.127-0.912 1.293-0.569 2.464-1.394 3.43-2.406s1.731-2.209 2.233-3.502c0.305-0.784 0.513-1.603 0.622-2.433 0.029 0.002 0.059 0.003 0.088 0.003 0.828 0 1.5-0.672 1.5-1.5 0-0.042-0.002-0.084-0.006-0.125h0.006zM21.617 15.983c-0.55 1.247-1.347 2.377-2.324 3.309s-2.133 1.668-3.381 2.151c-1.248 0.485-2.585 0.714-3.911 0.682-1.327-0.030-2.639-0.322-3.84-0.855-1.201-0.531-2.289-1.301-3.187-2.243s-1.606-2.057-2.070-3.259c-0.466-1.202-0.685-2.489-0.653-3.768 0.031-1.279 0.312-2.541 0.826-3.696 0.512-1.155 1.254-2.202 2.162-3.066s1.981-1.544 3.138-1.989c1.156-0.447 2.394-0.656 3.624-0.624 1.23 0.031 2.443 0.303 3.552 0.798 1.11 0.493 2.115 1.207 2.944 2.081s1.481 1.905 1.908 3.016c0.428 1.111 0.628 2.298 0.596 3.48h0.006c-0.003 0.041-0.006 0.083-0.006 0.125 0 0.774 0.586 1.41 1.338 1.491-0.146 0.816-0.387 1.613-0.721 2.367z"></path>
</symbol>
<symbol id="icon-spinner3" viewBox="0 0 24 24">
<title>spinner3</title>
<path d="M12 7.104c-0.773 0-1.399-0.626-1.399-1.399v-4.197c0-0.773 0.626-1.399 1.399-1.399s1.399 0.626 1.399 1.399v4.197c0 0.773-0.626 1.399-1.399 1.399z"></path>
<path d="M12 23.366c-0.483 0-0.874-0.391-0.874-0.874v-4.197c0-0.483 0.391-0.874 0.874-0.874s0.874 0.391 0.874 0.874v4.197c0 0.483-0.391 0.874-0.874 0.874z"></path>
<path d="M8.854 7.86c-0.453 0-0.894-0.235-1.137-0.656l-2.098-3.634c-0.362-0.627-0.147-1.429 0.48-1.792s1.429-0.147 1.792 0.48l2.098 3.634c0.362 0.627 0.147 1.429-0.48 1.792-0.206 0.119-0.432 0.176-0.655 0.176z"></path>
<path d="M17.247 21.873c-0.272 0-0.536-0.141-0.682-0.394l-2.098-3.634c-0.217-0.376-0.088-0.858 0.288-1.075s0.858-0.088 1.075 0.288l2.098 3.634c0.217 0.376 0.088 0.858-0.288 1.075-0.124 0.071-0.259 0.106-0.393 0.106z"></path>
<path d="M6.547 10.077c-0.208 0-0.418-0.053-0.611-0.164l-3.635-2.098c-0.585-0.338-0.786-1.087-0.448-1.672s1.087-0.786 1.672-0.448l3.634 2.098c0.585 0.338 0.786 1.087 0.448 1.672-0.227 0.393-0.638 0.612-1.061 0.612z"></path>
<path d="M21.085 17.945c-0.119 0-0.239-0.030-0.349-0.094l-3.634-2.098c-0.335-0.193-0.449-0.621-0.256-0.956s0.621-0.449 0.955-0.256l3.634 2.098c0.335 0.193 0.449 0.621 0.256 0.955-0.13 0.224-0.365 0.35-0.606 0.35z"></path>
<path d="M5.705 13.137h-4.197c-0.628 0-1.137-0.509-1.137-1.137s0.509-1.137 1.137-1.137h4.197c0.628 0 1.137 0.509 1.137 1.137s-0.509 1.137-1.137 1.137z"></path>
<path d="M22.492 12.699c-0 0 0 0 0 0h-4.197c-0.386-0-0.699-0.313-0.699-0.699s0.313-0.699 0.699-0.699c0 0 0 0 0 0h4.197c0.386 0 0.699 0.313 0.699 0.699s-0.313 0.699-0.699 0.699z"></path>
<path d="M2.915 18.295c-0.363 0-0.715-0.188-0.91-0.525-0.29-0.502-0.118-1.144 0.384-1.433l3.635-2.098c0.502-0.29 1.144-0.118 1.433 0.384s0.118 1.144-0.384 1.433l-3.634 2.098c-0.165 0.095-0.346 0.141-0.524 0.141z"></path>
<path d="M17.452 9.552c-0.242 0-0.477-0.125-0.606-0.35-0.193-0.335-0.079-0.762 0.256-0.956l3.634-2.098c0.335-0.193 0.762-0.079 0.956 0.256s0.079 0.762-0.256 0.956l-3.634 2.098c-0.11 0.064-0.23 0.094-0.349 0.094z"></path>
<path d="M6.753 22.048c-0.163 0-0.329-0.042-0.48-0.129-0.46-0.266-0.618-0.854-0.352-1.314l2.098-3.634c0.266-0.46 0.854-0.618 1.314-0.352s0.618 0.854 0.352 1.314l-2.098 3.634c-0.178 0.309-0.501 0.481-0.834 0.481z"></path>
<path d="M15.147 7.248c-0.119 0-0.239-0.030-0.349-0.094-0.335-0.193-0.449-0.621-0.256-0.955l2.098-3.634c0.193-0.335 0.621-0.449 0.955-0.256s0.449 0.621 0.256 0.955l-2.098 3.634c-0.13 0.224-0.365 0.35-0.606 0.35z"></path>
</symbol>
<symbol id="icon-spinner4" viewBox="0 0 24 24">
<title>spinner4</title>
<path d="M4.5 12c0-0.285 0.017-0.567 0.048-0.844l-4.335-1.409c-0.139 0.73-0.212 1.483-0.212 2.253 0 3.451 1.457 6.561 3.789 8.75l2.679-3.687c-1.222-1.334-1.967-3.112-1.967-5.063zM19.5 12c0 1.952-0.746 3.729-1.967 5.063l2.679 3.687c2.332-2.189 3.789-5.299 3.789-8.75 0-0.77-0.073-1.523-0.212-2.253l-4.335 1.409c0.031 0.277 0.048 0.559 0.048 0.844zM13.5 4.65c2.155 0.437 3.974 1.799 5.026 3.652l4.335-1.409c-1.716-3.643-5.209-6.283-9.362-6.801v4.557zM5.474 8.302c1.052-1.854 2.871-3.215 5.026-3.652v-4.557c-4.153 0.518-7.646 3.158-9.362 6.8l4.335 1.409zM15.107 18.828c-0.947 0.431-1.999 0.672-3.107 0.672s-2.16-0.241-3.107-0.672l-2.679 3.687c1.716 0.946 3.688 1.485 5.785 1.485s4.070-0.539 5.785-1.485l-2.679-3.687z"></path>
</symbol>
<symbol id="icon-spinner11" viewBox="0 0 24 24">
<title>spinner11</title>
<path d="M24 9h-9l3.364-3.364c-1.7-1.7-3.96-2.636-6.364-2.636s-4.664 0.936-6.364 2.636c-1.7 1.7-2.636 3.96-2.636 6.364s0.936 4.664 2.636 6.364c1.7 1.7 3.96 2.636 6.364 2.636s4.664-0.936 6.364-2.636c0.142-0.142 0.278-0.288 0.409-0.438l2.258 1.975c-2.2 2.512-5.43 4.098-9.031 4.098-6.627 0-12-5.373-12-12s5.373-12 12-12c3.314 0 6.313 1.344 8.485 3.515l3.515-3.515v9z"></path>
</symbol>
<symbol id="icon-binoculars" viewBox="0 0 24 24">
<title>binoculars</title>
<path d="M1.5 0h9v1.5h-9zM13.5 0h9v1.5h-9zM22.313 7.5h-1.313v-6h-6v6h-6v-6h-6v6h-1.313c-0.928 0-1.688 0.759-1.688 1.688v13.125c0 0.928 0.759 1.688 1.688 1.688h7.125c0.928 0 1.688-0.759 1.688-1.688v-8.813h3v8.813c0 0.928 0.759 1.688 1.688 1.688h7.125c0.928 0 1.688-0.759 1.688-1.688v-13.125c0-0.928-0.759-1.688-1.688-1.688zM8.156 22.5h-5.813c-0.464 0-0.844-0.337-0.844-0.75s0.38-0.75 0.844-0.75h5.813c0.464 0 0.844 0.337 0.844 0.75s-0.38 0.75-0.844 0.75zM12.75 12h-1.5c-0.413 0-0.75-0.337-0.75-0.75s0.337-0.75 0.75-0.75h1.5c0.413 0 0.75 0.337 0.75 0.75s-0.337 0.75-0.75 0.75zM21.656 22.5h-5.813c-0.464 0-0.844-0.337-0.844-0.75s0.38-0.75 0.844-0.75h5.813c0.464 0 0.844 0.337 0.844 0.75s-0.38 0.75-0.844 0.75z"></path>
</symbol>
<symbol id="icon-search" viewBox="0 0 24 24">
<title>search</title>
<path d="M23.256 20.423l-5.685-4.835c-0.588-0.529-1.216-0.772-1.724-0.748 1.342-1.572 2.153-3.611 2.153-5.84 0-4.971-4.029-9-9-9s-9 4.029-9 9 4.029 9 9 9c2.229 0 4.268-0.811 5.84-2.153-0.023 0.508 0.219 1.136 0.748 1.724l4.835 5.685c0.828 0.92 2.18 0.997 3.005 0.172s0.747-2.177-0.172-3.005zM9 15c-3.314 0-6-2.686-6-6s2.686-6 6-6 6 2.686 6 6-2.686 6-6 6z"></path>
</symbol>
<symbol id="icon-zoom-in" viewBox="0 0 24 24">
<title>zoom-in</title>
<path d="M23.256 20.423l-5.685-4.835c-0.588-0.529-1.216-0.772-1.724-0.748 1.342-1.572 2.153-3.611 2.153-5.84 0-4.971-4.029-9-9-9s-9 4.029-9 9 4.029 9 9 9c2.229 0 4.268-0.811 5.84-2.153-0.023 0.508 0.219 1.136 0.748 1.724l4.835 5.685c0.828 0.92 2.18 0.997 3.005 0.172s0.747-2.177-0.172-3.005zM9 15c-3.314 0-6-2.686-6-6s2.686-6 6-6 6 2.686 6 6-2.686 6-6 6zM10.5 4.5h-3v3h-3v3h3v3h3v-3h3v-3h-3z"></path>
</symbol>
<symbol id="icon-zoom-out" viewBox="0 0 24 24">
<title>zoom-out</title>
<path d="M23.256 20.423l-5.685-4.835c-0.588-0.529-1.216-0.772-1.724-0.748 1.342-1.572 2.153-3.611 2.153-5.84 0-4.971-4.029-9-9-9s-9 4.029-9 9 4.029 9 9 9c2.229 0 4.268-0.811 5.84-2.153-0.023 0.508 0.219 1.136 0.748 1.724l4.835 5.685c0.828 0.92 2.18 0.997 3.005 0.172s0.747-2.177-0.172-3.005zM9 15c-3.314 0-6-2.686-6-6s2.686-6 6-6 6 2.686 6 6-2.686 6-6 6zM4.5 7.5h9v3h-9z"></path>
</symbol>
<symbol id="icon-enlarge" viewBox="0 0 24 24">
<title>enlarge</title>
<path d="M24 0h-9.75l3.75 3.75-4.5 4.5 2.25 2.25 4.5-4.5 3.75 3.75z"></path>
<path d="M24 24v-9.75l-3.75 3.75-4.5-4.5-2.25 2.25 4.5 4.5-3.75 3.75z"></path>
<path d="M0 24h9.75l-3.75-3.75 4.5-4.5-2.25-2.25-4.5 4.5-3.75-3.75z"></path>
<path d="M0 0v9.75l3.75-3.75 4.5 4.5 2.25-2.25-4.5-4.5 3.75-3.75z"></path>
</symbol>
<symbol id="icon-lock" viewBox="0 0 24 24">
<title>lock</title>
<path d="M13.875 10.5h-0.375v-4.5c0-2.481-2.019-4.5-4.5-4.5h-3c-2.481 0-4.5 2.019-4.5 4.5v4.5h-0.375c-0.619 0-1.125 0.506-1.125 1.125v11.25c0 0.619 0.506 1.125 1.125 1.125h12.75c0.619 0 1.125-0.506 1.125-1.125v-11.25c0-0.619-0.506-1.125-1.125-1.125zM4.5 6c0-0.827 0.673-1.5 1.5-1.5h3c0.827 0 1.5 0.673 1.5 1.5v4.5h-6v-4.5z"></path>
</symbol>
<symbol id="icon-unlocked" viewBox="0 0 24 24">
<title>unlocked</title>
<path d="M18 1.5c2.481 0 4.5 2.019 4.5 4.5v4.5h-3v-4.5c0-0.827-0.673-1.5-1.5-1.5h-3c-0.827 0-1.5 0.673-1.5 1.5v4.5h0.375c0.619 0 1.125 0.506 1.125 1.125v11.25c0 0.619-0.506 1.125-1.125 1.125h-12.75c-0.619 0-1.125-0.506-1.125-1.125v-11.25c0-0.619 0.506-1.125 1.125-1.125h9.375v-4.5c0-2.481 2.019-4.5 4.5-4.5h3z"></path>
</symbol>
<symbol id="icon-wrench" viewBox="0 0 24 24">
<title>wrench</title>
<path d="M23.506 19.169l-10.794-9.252c0.503-0.944 0.788-2.022 0.788-3.167 0-3.728-3.022-6.75-6.75-6.75-0.682 0-1.34 0.102-1.96 0.29l3.9 3.9c0.583 0.583 0.583 1.538 0 2.121l-2.379 2.379c-0.583 0.583-1.538 0.583-2.121 0l-3.9-3.9c-0.188 0.62-0.29 1.279-0.29 1.96 0 3.728 3.022 6.75 6.75 6.75 1.145 0 2.222-0.285 3.167-0.788l9.252 10.794c0.537 0.626 1.454 0.662 2.037 0.078l2.379-2.379c0.583-0.583 0.548-1.5-0.078-2.037z"></path>
</symbol>
<symbol id="icon-equalizer" viewBox="0 0 24 24">
<title>equalizer</title>
<path d="M10.5 3v-0.375c0-0.619-0.506-1.125-1.125-1.125h-3.75c-0.619 0-1.125 0.506-1.125 1.125v0.375h-4.5v3h4.5v0.375c0 0.619 0.506 1.125 1.125 1.125h3.75c0.619 0 1.125-0.506 1.125-1.125v-0.375h13.5v-3h-13.5zM6 6v-3h3v3h-3zM19.5 10.125c0-0.619-0.506-1.125-1.125-1.125h-3.75c-0.619 0-1.125 0.506-1.125 1.125v0.375h-13.5v3h13.5v0.375c0 0.619 0.506 1.125 1.125 1.125h3.75c0.619 0 1.125-0.506 1.125-1.125v-0.375h4.5v-3h-4.5v-0.375zM15 13.5v-3h3v3h-3zM10.5 17.625c0-0.619-0.506-1.125-1.125-1.125h-3.75c-0.619 0-1.125 0.506-1.125 1.125v0.375h-4.5v3h4.5v0.375c0 0.619 0.506 1.125 1.125 1.125h3.75c0.619 0 1.125-0.506 1.125-1.125v-0.375h13.5v-3h-13.5v-0.375zM6 21v-3h3v3h-3z"></path>
</symbol>
<symbol id="icon-cog" viewBox="0 0 24 24">
<title>cog</title>
<path d="M21.886 14.303c-1.259-2.181-0.502-4.976 1.691-6.246l-2.358-4.085c-0.674 0.395-1.457 0.622-2.293 0.622-2.52 0-4.563-2.057-4.563-4.594h-4.717c0.006 0.783-0.189 1.577-0.608 2.303-1.259 2.181-4.058 2.923-6.255 1.658l-2.358 4.085c0.679 0.386 1.267 0.951 1.685 1.675 1.257 2.178 0.504 4.967-1.681 6.24l2.358 4.085c0.671-0.391 1.451-0.615 2.283-0.615 2.512 0 4.55 2.044 4.563 4.569h4.717c-0.002-0.775 0.194-1.56 0.609-2.279 1.257-2.177 4.049-2.92 6.244-1.664l2.358-4.085c-0.675-0.386-1.258-0.949-1.674-1.669zM12 16.859c-2.684 0-4.859-2.176-4.859-4.859s2.176-4.859 4.859-4.859c2.684 0 4.859 2.176 4.859 4.859s-2.176 4.859-4.859 4.859z"></path>
</symbol>
<symbol id="icon-bin" viewBox="0 0 24 24">
<title>bin</title>
<path d="M3 7.5v15c0 0.825 0.675 1.5 1.5 1.5h13.5c0.825 0 1.5-0.675 1.5-1.5v-15h-16.5zM7.5 21h-1.5v-10.5h1.5v10.5zM10.5 21h-1.5v-10.5h1.5v10.5zM13.5 21h-1.5v-10.5h1.5v10.5zM16.5 21h-1.5v-10.5h1.5v10.5z"></path>
<path d="M19.875 3h-4.875v-1.875c0-0.619-0.506-1.125-1.125-1.125h-5.25c-0.619 0-1.125 0.506-1.125 1.125v1.875h-4.875c-0.619 0-1.125 0.506-1.125 1.125v1.875h19.5v-1.875c0-0.619-0.506-1.125-1.125-1.125zM13.5 3h-4.5v-1.481h4.5v1.481z"></path>
</symbol>
<symbol id="icon-clipboard" viewBox="0 0 24 24">
<title>clipboard</title>
<path d="M21.75 3h-6.75c0-1.657-1.343-3-3-3s-3 1.343-3 3h-6.75c-0.414 0-0.75 0.336-0.75 0.75v19.5c0 0.414 0.336 0.75 0.75 0.75h19.5c0.414 0 0.75-0.336 0.75-0.75v-19.5c0-0.414-0.336-0.75-0.75-0.75zM12 1.5c0.828 0 1.5 0.672 1.5 1.5s-0.672 1.5-1.5 1.5c-0.828 0-1.5-0.672-1.5-1.5s0.672-1.5 1.5-1.5zM21 22.5h-18v-18h3v2.25c0 0.414 0.336 0.75 0.75 0.75h10.5c0.414 0 0.75-0.336 0.75-0.75v-2.25h3v18z"></path>
<path d="M10.5 20.121l-4.811-5.561 1.371-1.371 3.439 2.689 6.439-5.689 1.371 1.371z"></path>
</symbol>
<symbol id="icon-link1" viewBox="0 0 24 24">
<title>link1</title>
<path d="M10.318 14.901c-0.312 0-0.624-0.119-0.862-0.357-2.23-2.23-2.23-5.858 0-8.088l4.5-4.5c1.080-1.080 2.516-1.675 4.044-1.675s2.964 0.595 4.044 1.675c2.23 2.23 2.23 5.858 0 8.088l-2.057 2.057c-0.476 0.476-1.248 0.476-1.724 0s-0.476-1.248 0-1.724l2.057-2.057c1.279-1.279 1.279-3.361 0-4.64-0.62-0.62-1.444-0.961-2.32-0.961s-1.7 0.341-2.32 0.961l-4.5 4.5c-1.279 1.279-1.279 3.361 0 4.64 0.476 0.476 0.476 1.248 0 1.724-0.238 0.238-0.55 0.357-0.862 0.357z"></path>
<path d="M6 23.719c-1.528 0-2.964-0.595-4.044-1.675-2.23-2.23-2.23-5.858 0-8.088l2.057-2.057c0.476-0.476 1.248-0.476 1.724 0s0.476 1.248 0 1.724l-2.057 2.057c-1.279 1.279-1.279 3.361 0 4.64 0.62 0.62 1.444 0.961 2.32 0.961s1.7-0.341 2.32-0.961l4.5-4.5c1.279-1.279 1.279-3.361 0-4.64-0.476-0.476-0.476-1.248 0-1.724s1.248-0.476 1.724 0c2.23 2.23 2.23 5.858 0 8.088l-4.5 4.5c-1.080 1.080-2.516 1.675-4.044 1.675z"></path>
</symbol>
<symbol id="icon-attachment" viewBox="0 0 24 24">
<title>attachment</title>
<path d="M15.605 7.665l-1.522-1.522-7.613 7.611c-1.261 1.261-1.261 3.306 0 4.567s3.306 1.261 4.567 0l9.135-9.134c2.103-2.101 2.103-5.509 0-7.611-2.102-2.102-5.51-2.102-7.612 0l-9.591 9.59c-0.007 0.007-0.014 0.014-0.021 0.020-2.932 2.932-2.932 7.684 0 10.615 2.931 2.931 7.684 2.931 10.617 0 0.006-0.006 0.012-0.013 0.019-0.021l0.001 0.001 6.547-6.546-1.523-1.522-6.547 6.545c-0.007 0.006-0.013 0.013-0.020 0.020-2.088 2.087-5.484 2.087-7.572 0s-2.087-5.483 0-7.57c0.007-0.007 0.014-0.014 0.021-0.020l-0.001-0.001 9.592-9.59c1.259-1.259 3.308-1.259 4.568 0s1.259 3.308 0 4.567l-9.135 9.134c-0.42 0.42-1.103 0.42-1.523 0s-0.419-1.102 0-1.522l7.613-7.612z"></path>
</symbol>
<symbol id="icon-warning1" viewBox="0 0 24 24">
<title>warning1</title>
<path d="M12 2.174l10.057 20.044h-20.114l10.057-20.044zM12 0c-0.517 0-1.035 0.349-1.427 1.046l-10.244 20.417c-0.785 1.395-0.117 2.537 1.484 2.537h20.374c1.601 0 2.269-1.142 1.484-2.537h0l-10.244-20.417c-0.392-0.698-0.91-1.046-1.427-1.046v0z"></path>
<path d="M13.5 19.5c0 0.828-0.672 1.5-1.5 1.5s-1.5-0.672-1.5-1.5c0-0.828 0.672-1.5 1.5-1.5s1.5 0.672 1.5 1.5z"></path>
<path d="M12 16.5c-0.828 0-1.5-0.672-1.5-1.5v-4.5c0-0.828 0.672-1.5 1.5-1.5s1.5 0.672 1.5 1.5v4.5c0 0.828-0.672 1.5-1.5 1.5z"></path>
</symbol>
<symbol id="icon-notification" viewBox="0 0 24 24">
<title>notification</title>
<path d="M12 2.25c-2.604 0-5.053 1.014-6.894 2.856s-2.856 4.29-2.856 6.894c0 2.604 1.014 5.053 2.856 6.894s4.29 2.856 6.894 2.856c2.604 0 5.053-1.014 6.894-2.856s2.856-4.29 2.856-6.894c0-2.604-1.014-5.053-2.856-6.894s-4.29-2.856-6.894-2.856zM12 0v0c6.627 0 12 5.373 12 12s-5.373 12-12 12c-6.627 0-12-5.373-12-12s5.373-12 12-12zM10.5 16.5h3v3h-3zM10.5 4.5h3v9h-3z"></path>
</symbol>
<symbol id="icon-question" viewBox="0 0 24 24">
<title>question</title>
<path d="M10.5 16.5h3v3h-3zM16.5 6c0.828 0 1.5 0.672 1.5 1.5v4.5l-4.5 3h-3v-1.5l4.5-3v-1.5h-7.5v-3h9zM12 2.25c-2.604 0-5.053 1.014-6.894 2.856s-2.856 4.29-2.856 6.894c0 2.604 1.014 5.053 2.856 6.894s4.29 2.856 6.894 2.856c2.604 0 5.053-1.014 6.894-2.856s2.856-4.29 2.856-6.894c0-2.604-1.014-5.053-2.856-6.894s-4.29-2.856-6.894-2.856zM12 0v0c6.627 0 12 5.373 12 12s-5.373 12-12 12c-6.627 0-12-5.373-12-12s5.373-12 12-12z"></path>
</symbol>
<symbol id="icon-arrow-up-left2" viewBox="0 0 24 24">
<title>arrow-up-left2</title>
<path d="M20.561 18.439l-12.439-12.439h5.379c0.828 0 1.5-0.672 1.5-1.5s-0.672-1.5-1.5-1.5h-9c-0.607 0-1.154 0.365-1.386 0.926-0.077 0.186-0.113 0.381-0.113 0.574h-0.001v9c0 0.828 0.672 1.5 1.5 1.5s1.5-0.672 1.5-1.5v-5.379l12.439 12.439c0.293 0.293 0.677 0.439 1.061 0.439s0.768-0.146 1.061-0.439c0.586-0.586 0.586-1.536 0-2.121z"></path>
</symbol>
<symbol id="icon-arrow-up2" viewBox="0 0 24 24">
<title>arrow-up2</title>
<path d="M20.561 9.439l-7.5-7.5c-0.586-0.586-1.535-0.586-2.121 0l-7.5 7.5c-0.586 0.586-0.586 1.536 0 2.121s1.536 0.586 2.121 0l4.939-4.939v14.379c0 0.828 0.672 1.5 1.5 1.5s1.5-0.672 1.5-1.5v-14.379l4.939 4.939c0.293 0.293 0.677 0.439 1.061 0.439s0.768-0.146 1.061-0.439c0.586-0.586 0.586-1.535 0-2.121z"></path>
</symbol>
<symbol id="icon-arrow-up-right2" viewBox="0 0 24 24">
<title>arrow-up-right2</title>
<path d="M5.561 20.561l12.439-12.439v5.379c0 0.828 0.672 1.5 1.5 1.5s1.5-0.672 1.5-1.5v-9c0-0.607-0.365-1.154-0.926-1.386-0.186-0.077-0.381-0.113-0.574-0.113v-0.001h-9c-0.828 0-1.5 0.672-1.5 1.5s0.672 1.5 1.5 1.5h5.379l-12.439 12.439c-0.293 0.293-0.439 0.677-0.439 1.061s0.146 0.768 0.439 1.061c0.586 0.586 1.536 0.586 2.121 0z"></path>
</symbol>
<symbol id="icon-arrow-right2" viewBox="0 0 24 24">
<title>arrow-right2</title>
<path d="M14.561 20.561l7.5-7.5c0.586-0.586 0.586-1.536 0-2.121l-7.5-7.5c-0.586-0.586-1.536-0.586-2.121 0s-0.586 1.536 0 2.121l4.939 4.939h-14.379c-0.828 0-1.5 0.672-1.5 1.5s0.672 1.5 1.5 1.5h14.379l-4.939 4.939c-0.293 0.293-0.439 0.677-0.439 1.061s0.146 0.768 0.439 1.061c0.586 0.586 1.536 0.586 2.121 0z"></path>
</symbol>
<symbol id="icon-arrow-down-right2" viewBox="0 0 24 24">
<title>arrow-down-right2</title>
<path d="M3.439 5.561l12.439 12.439h-5.379c-0.828 0-1.5 0.672-1.5 1.5s0.672 1.5 1.5 1.5h9c0.607 0 1.154-0.365 1.386-0.926 0.077-0.186 0.113-0.381 0.113-0.574h0.001v-9c0-0.828-0.672-1.5-1.5-1.5s-1.5 0.672-1.5 1.5v5.379l-12.439-12.439c-0.293-0.293-0.677-0.439-1.061-0.439s-0.768 0.146-1.061 0.439c-0.586 0.586-0.586 1.536 0 2.121z"></path>
</symbol>
<symbol id="icon-arrow-down2" viewBox="0 0 24 24">
<title>arrow-down2</title>
<path d="M20.561 14.561l-7.5 7.5c-0.586 0.586-1.535 0.586-2.121 0l-7.5-7.5c-0.586-0.586-0.586-1.536 0-2.121s1.536-0.586 2.121 0l4.939 4.939v-14.379c0-0.828 0.672-1.5 1.5-1.5s1.5 0.672 1.5 1.5v14.379l4.939-4.939c0.293-0.293 0.677-0.439 1.061-0.439s0.768 0.146 1.061 0.439c0.586 0.586 0.586 1.535 0 2.121z"></path>
</symbol>
<symbol id="icon-arrow-down-left2" viewBox="0 0 24 24">
<title>arrow-down-left2</title>
<path d="M18.439 3.439l-12.439 12.439v-5.379c0-0.828-0.672-1.5-1.5-1.5s-1.5 0.672-1.5 1.5v9c0 0.607 0.365 1.154 0.926 1.386 0.186 0.077 0.381 0.113 0.574 0.113v0.001l9-0c0.828 0 1.5-0.672 1.5-1.5s-0.672-1.5-1.5-1.5h-5.379l12.439-12.439c0.293-0.293 0.439-0.677 0.439-1.061s-0.146-0.768-0.439-1.061c-0.586-0.586-1.536-0.586-2.121 0v0z"></path>
</symbol>
<symbol id="icon-arrow-left2" viewBox="0 0 24 24">
<title>arrow-left2</title>
<path d="M9.439 20.561l-7.5-7.5c-0.586-0.586-0.586-1.536 0-2.121l7.5-7.5c0.586-0.586 1.536-0.586 2.121 0s0.586 1.536 0 2.121l-4.939 4.939h14.379c0.828 0 1.5 0.672 1.5 1.5s-0.672 1.5-1.5 1.5h-14.379l4.939 4.939c0.293 0.293 0.439 0.677 0.439 1.061s-0.146 0.768-0.439 1.061c-0.586 0.586-1.536 0.586-2.121 0z"></path>
</symbol>
<symbol id="icon-checkbox-checked" viewBox="0 0 24 24">
<title>checkbox-checked</title>
<path d="M21 0h-18c-1.65 0-3 1.35-3 3v18c0 1.65 1.35 3 3 3h18c1.65 0 3-1.35 3-3v-18c0-1.65-1.35-3-3-3zM10.5 18.621l-5.561-5.561 2.121-2.121 3.439 3.439 7.189-7.189 2.121 2.121-9.311 9.311z"></path>
</symbol>
<symbol id="icon-checkbox-unchecked" viewBox="0 0 24 24">
<title>checkbox-unchecked</title>
<path d="M21 0h-18c-1.65 0-3 1.35-3 3v18c0 1.65 1.35 3 3 3h18c1.65 0 3-1.35 3-3v-18c0-1.65-1.35-3-3-3zM21 21h-18v-18h18v18z"></path>
</symbol>
<symbol id="icon-radio-checked" viewBox="0 0 24 24">
<title>radio-checked</title>
<path d="M12 0c-6.627 0-12 5.373-12 12s5.373 12 12 12 12-5.373 12-12-5.373-12-12-12zM12 21c-4.971 0-9-4.029-9-9s4.029-9 9-9c4.971 0 9 4.029 9 9s-4.029 9-9 9zM7.5 12c0-2.485 2.015-4.5 4.5-4.5s4.5 2.015 4.5 4.5c0 2.485-2.015 4.5-4.5 4.5s-4.5-2.015-4.5-4.5z"></path>
</symbol>
<symbol id="icon-radio-checked2" viewBox="0 0 24 24">
<title>radio-checked2</title>
<path d="M12 0c-6.627 0-12 5.373-12 12s5.373 12 12 12 12-5.373 12-12-5.373-12-12-12zM12 15c-1.657 0-3-1.343-3-3s1.343-3 3-3c1.657 0 3 1.343 3 3s-1.343 3-3 3z"></path>
</symbol>
<symbol id="icon-radio-unchecked" viewBox="0 0 24 24">
<title>radio-unchecked</title>
<path d="M12 0c-6.627 0-12 5.373-12 12s5.373 12 12 12 12-5.373 12-12-5.373-12-12-12zM12 21c-4.971 0-9-4.029-9-9s4.029-9 9-9c4.971 0 9 4.029 9 9s-4.029 9-9 9z"></path>
</symbol>
</defs>
</svg>
